<svg width="85" height="85" viewBox="0 0 85 85" fill="none" xmlns="http://www.w3.org/2000/svg">
<rect width="85" height="85" rx="11" fill="url(#paint0_linear_374_37328)" fill-opacity="0.06"/>
<rect x="1" y="1" width="83" height="83" rx="10" stroke="#EAFFE5" stroke-opacity="0.14" stroke-width="2"/>
<g opacity="0.69">
<path d="M63.4928 22.925C63.1927 22.4982 62.8107 22.1354 62.3691 21.8575C61.9274 21.5796 61.435 21.3922 60.9204 21.3063L38.7916 17.5525C38.2335 17.4662 37.6634 17.4975 37.1181 17.6444C36.5727 17.7914 36.0642 18.0508 35.625 18.4059C35.1858 18.761 34.8258 19.2041 34.568 19.7066C34.3101 20.2091 34.1603 20.76 34.1279 21.3238C34.7822 21.3203 46.7162 21.3262 47.7779 21.3238C49.4018 21.3256 50.9586 21.9714 52.1069 23.1197C53.2552 24.268 53.9011 25.8249 53.9028 27.4488V44.4938C56.3403 44.5732 58.6873 45.4353 60.5966 46.9525L64.1754 25.8825C64.2628 25.3689 64.2475 24.8431 64.1303 24.3354C64.0132 23.8278 63.7965 23.3484 63.4928 22.925Z" fill="white"/>
<path d="M53.4996 46.235C50.921 46.2388 48.4492 47.2654 46.6266 49.0895C44.8041 50.9137 43.7797 53.3864 43.7783 55.965C44.3142 68.8616 62.6869 68.8578 63.2208 55.965C63.2194 53.3864 62.195 50.9137 60.3725 49.0895C58.55 47.2654 56.0782 46.2388 53.4996 46.235ZM53.4996 55.09C54.2148 55.0971 54.9041 55.3589 55.4435 55.8286C55.983 56.2982 56.3372 56.9449 56.4426 57.6523C56.5481 58.3597 56.3977 59.0816 56.0186 59.6881C55.6396 60.2946 55.0566 60.7461 54.3745 60.9613L54.3746 62.1338C54.3746 62.3659 54.2824 62.5884 54.1183 62.7525C53.9542 62.9166 53.7316 63.0088 53.4996 63.0088C53.2675 63.0088 53.0449 62.9166 52.8809 62.7525C52.7168 62.5884 52.6246 62.3659 52.6246 62.1338V60.9613C52.0105 60.772 51.4731 60.3914 51.0906 59.8751C50.7081 59.3588 50.5006 58.7338 50.4983 58.0913C50.4983 57.8592 50.5905 57.6367 50.7546 57.4726C50.9187 57.3085 51.1413 57.2163 51.3733 57.2163C51.6054 57.2163 51.8279 57.3085 51.992 57.4726C52.1561 57.6367 52.2483 57.8592 52.2483 58.0913C52.2483 58.3388 52.3217 58.5807 52.4592 58.7865C52.5967 58.9922 52.7921 59.1526 53.0207 59.2473C53.2494 59.342 53.501 59.3668 53.7437 59.3185C53.9864 59.2702 54.2093 59.1511 54.3843 58.9761C54.5593 58.8011 54.6785 58.5781 54.7268 58.3354C54.7751 58.0927 54.7503 57.8411 54.6556 57.6125C54.5609 57.3838 54.4005 57.1884 54.1947 57.0509C53.989 56.9134 53.747 56.84 53.4996 56.84C52.7803 56.8402 52.0848 56.582 51.54 56.1124C50.9951 55.6428 50.637 54.9931 50.531 54.2816C50.425 53.5702 50.578 52.8443 50.9623 52.2363C51.3466 51.6282 51.9365 51.1784 52.6246 50.9688V49.7875C52.6246 49.5555 52.7168 49.3329 52.8809 49.1688C53.0449 49.0047 53.2675 48.9125 53.4996 48.9125C53.7316 48.9125 53.9542 49.0047 54.1183 49.1688C54.2824 49.3329 54.3746 49.5555 54.3746 49.7875V50.9688C54.9887 51.155 55.5269 51.5336 55.9097 52.0487C56.2924 52.5638 56.4997 53.1883 56.5008 53.83C56.4967 54.0594 56.4027 54.278 56.2391 54.4387C56.0754 54.5995 55.8552 54.6895 55.6258 54.6895C55.3964 54.6895 55.1762 54.5994 55.0125 54.4387C54.8489 54.2779 54.7549 54.0593 54.7508 53.83C54.7491 53.5829 54.6742 53.3419 54.5357 53.1373C54.3971 52.9326 54.2011 52.7736 53.9723 52.6803C53.7436 52.5869 53.4922 52.5634 53.2501 52.6127C53.008 52.6619 52.7859 52.7818 52.6117 52.9571C52.4376 53.1325 52.3193 53.3554 52.2718 53.5979C52.2242 53.8404 52.2495 54.0915 52.3444 54.3196C52.4394 54.5478 52.5998 54.7427 52.8053 54.8798C53.0109 55.0169 53.2525 55.09 53.4996 55.09Z" fill="white"/>
<path d="M44.4437 63C38.9268 56.0702 43.4466 45.4918 52.1526 44.5639L52.1525 27.4488C52.152 26.2886 51.691 25.1761 50.8706 24.3557C50.0502 23.5353 48.9377 23.0742 47.7775 23.0738H26.1475C24.9873 23.0742 23.8747 23.5353 23.0543 24.3557C22.234 25.176 21.7729 26.2886 21.7725 27.4488V62.125C21.7729 63.2852 22.234 64.3978 23.0543 65.2182C23.8747 66.0386 24.9873 66.4996 26.1475 66.5H47.7775C48.0954 66.5007 48.4124 66.4655 48.7225 66.395C47.0434 65.6248 45.5754 64.4601 44.4437 63ZM26.1562 28C26.1607 27.7709 26.2548 27.5527 26.4185 27.3923C26.5821 27.2318 26.8021 27.142 27.0312 27.142C27.2604 27.142 27.4804 27.2319 27.644 27.3923C27.8076 27.5528 27.9018 27.771 27.9062 28.0001V37.73H29.2975V31.605C29.3019 31.3759 29.3961 31.1577 29.5597 30.9973C29.7233 30.8368 29.9433 30.747 30.1725 30.747C30.4016 30.747 30.6217 30.8369 30.7853 30.9973C30.9489 31.1578 31.043 31.376 31.0475 31.6051V37.73H33.0337V33.3025C33.037 33.0726 33.1306 32.8532 33.2943 32.6918C33.4581 32.5303 33.6788 32.4398 33.9087 32.4398C34.1387 32.4398 34.3594 32.5303 34.5231 32.6918C34.6868 32.8532 34.7805 33.0726 34.7837 33.3025V37.73H36.77V35.5863C36.77 35.3542 36.8621 35.1317 37.0262 34.9676C37.1903 34.8035 37.4129 34.7113 37.645 34.7113C37.877 34.7113 38.0996 34.8035 38.2637 34.9676C38.4278 35.1317 38.52 35.3542 38.52 35.5863V37.73H40.5937C40.8258 37.73 41.0483 37.8222 41.2124 37.9863C41.3765 38.1504 41.4687 38.373 41.4687 38.605C41.4687 38.8371 41.3765 39.0597 41.2124 39.2238C41.0483 39.3879 40.8258 39.48 40.5937 39.48H27.0312C26.9162 39.4804 26.8022 39.4581 26.6959 39.4142C26.5896 39.3704 26.4929 39.306 26.4116 39.2246C26.3303 39.1433 26.2658 39.0467 26.222 38.9404C26.1782 38.834 26.1558 38.7201 26.1562 38.605V28ZM27.6612 61.005H40.5937C40.8234 61.0086 41.0425 61.1024 41.2037 61.2661C41.3649 61.4298 41.4552 61.6503 41.4552 61.8801C41.4552 62.1098 41.3649 62.3303 41.2037 62.494C41.0425 62.6577 40.8234 62.7515 40.5937 62.755H27.6612C27.4315 62.7515 27.2124 62.6577 27.0512 62.494C26.89 62.3303 26.7997 62.1098 26.7997 61.88C26.7997 61.6503 26.89 61.4298 27.0512 61.2661C27.2124 61.1024 27.4315 61.0086 27.6612 61.005ZM26.7862 55.7375C26.7869 55.5057 26.8793 55.2835 27.0432 55.1196C27.2072 54.9556 27.4294 54.8632 27.6612 54.8625H38.9137C39.1458 54.8625 39.3683 54.9547 39.5324 55.1188C39.6965 55.2829 39.7887 55.5055 39.7887 55.7375C39.7887 55.9696 39.6965 56.1922 39.5324 56.3563C39.3683 56.5204 39.1458 56.6125 38.9137 56.6125H27.6612C27.4294 56.6119 27.2072 56.5194 27.0433 56.3555C26.8793 56.1916 26.7869 55.9694 26.7862 55.7375ZM40.795 50.47H27.6612C27.4314 50.4666 27.2121 50.3729 27.0508 50.2092C26.8895 50.0455 26.7991 49.8249 26.7991 49.595C26.7991 49.3652 26.8895 49.1446 27.0508 48.9809C27.2121 48.8171 27.4314 48.7235 27.6612 48.72H40.795C41.0248 48.7235 41.244 48.8171 41.4053 48.9809C41.5667 49.1446 41.6571 49.3652 41.6571 49.595C41.6571 49.8249 41.5667 50.0455 41.4053 50.2092C41.244 50.3729 41.0248 50.4666 40.795 50.47ZM46.2637 44.3363H27.6612C27.4291 44.3363 27.2066 44.2441 27.0425 44.08C26.8784 43.9159 26.7862 43.6934 26.7862 43.4613C26.7862 43.2292 26.8784 43.0067 27.0425 42.8426C27.2066 42.6785 27.4291 42.5863 27.6612 42.5863H46.2637C46.4934 42.5898 46.7125 42.6836 46.8737 42.8473C47.0349 43.011 47.1253 43.2315 47.1253 43.4613C47.1253 43.691 47.0349 43.9116 46.8737 44.0753C46.7125 44.239 46.4934 44.3327 46.2637 44.3363Z" fill="white"/>
</g>
<defs>
<linearGradient id="paint0_linear_374_37328" x1="42.5" y1="0" x2="42.5" y2="85" gradientUnits="userSpaceOnUse">
<stop stop-color="white"/>
<stop offset="1" stop-color="#999999" stop-opacity="0"/>
</linearGradient>
</defs>
</svg>
