<svg width="24" height="24" viewBox="0 0 24 24" fill="none" xmlns="http://www.w3.org/2000/svg">
<path d="M9.21891 12.1887L9.39569 12.0119L9.21891 11.8352L1.74987 4.36615C1.0339 3.65018 1.0339 2.48939 1.74987 1.77341C2.46582 1.05746 3.62663 1.05746 4.34259 1.77341L11.8116 9.24246L11.9884 9.41923L12.1652 9.24246L19.6343 1.77346L19.4576 1.59668L19.6343 1.77345C20.3502 1.0575 21.5109 1.05747 22.227 1.77347C22.9429 2.48943 22.9429 3.65023 22.227 4.36617L14.7579 11.8352L14.5811 12.0119L14.7579 12.1887L22.227 19.6579C22.9429 20.3738 22.9429 21.5347 22.227 22.2506C21.5111 22.9665 20.3502 22.9665 19.6343 22.2506L12.1652 14.7814L11.9884 14.6046L11.8116 14.7814L4.34259 22.2506C3.62664 22.9665 2.46582 22.9665 1.74987 22.2506C1.0339 21.5347 1.0339 20.3738 1.74986 19.6579L1.57309 19.4811L1.74987 19.6579L9.21891 12.1887Z" fill="url(#paint0_linear_525_1883)" stroke="#0C0C0C" stroke-width="0.5"/>
<defs>
<linearGradient id="paint0_linear_525_1883" x1="11.9884" y1="0.98645" x2="11.9884" y2="23.0375" gradientUnits="userSpaceOnUse">
<stop stop-color="#38AF20"/>
<stop offset="1" stop-color="#126D12"/>
</linearGradient>
</defs>
</svg>
