<svg width="23" height="23" viewBox="0 0 23 23" fill="none" xmlns="http://www.w3.org/2000/svg">
<g opacity="0.8" clip-path="url(#clip0_374_8844)">
<path d="M2.28883 17.7579L1.03817 21.51C0.850712 22.0721 1.38557 22.6067 1.94766 22.419L5.69755 21.1666L2.28883 17.7579Z" fill="white"/>
<path d="M13.4539 5.92197L3.98633 15.3896L8.06944 19.4727C10.2093 17.3325 14.3729 13.1683 17.5366 10.0046L13.4539 5.92197Z" fill="white"/>
<path d="M21.6559 1.7988C21.1506 1.29058 20.4065 1 19.6175 1C18.8285 1 18.0845 1.29058 17.5763 1.80023L15.4873 3.88919L19.5698 7.97163C20.7134 6.82792 21.5038 6.03746 21.6589 5.88249C22.7818 4.75785 22.7817 2.92603 21.6559 1.7988Z" fill="white"/>
<path d="M21.6572 5.88295L21.6574 5.88275C21.6612 5.87895 21.6629 5.87725 21.666 5.87415C21.6629 5.87735 21.6612 5.87905 21.6572 5.88295Z" fill="white"/>
<path d="M21.666 5.87504C21.671 5.87 21.6769 5.86413 21.68 5.86109C21.6768 5.86424 21.671 5.87 21.666 5.87504Z" fill="white"/>
<path d="M21.6787 5.86276C21.6898 5.85168 21.69 5.85145 21.6787 5.86276V5.86276Z" fill="white"/>
</g>
<defs>
<clipPath id="clip0_374_8844">
<rect width="22" height="22" fill="white" transform="translate(0.5 0.5)"/>
</clipPath>
</defs>
</svg>
