<svg width="22" height="23" viewBox="0 0 22 23" fill="none" xmlns="http://www.w3.org/2000/svg">
<g opacity="0.8">
<path d="M17.1875 6.00001H20.2194L16.5 2.28064V5.31251C16.5 5.49485 16.5724 5.66972 16.7014 5.79865C16.8303 5.92758 17.0052 6.00001 17.1875 6.00001Z" fill="white"/>
<path d="M17.1875 7.375C16.6405 7.375 16.1159 7.1577 15.7291 6.77091C15.3423 6.38411 15.125 5.85951 15.125 5.3125V1.875H7.5625C7.01549 1.875 6.49089 2.0923 6.10409 2.47909C5.7173 2.86589 5.5 3.39049 5.5 3.9375V6C6.55568 6.00249 7.58834 6.30875 8.47469 6.88221C9.36104 7.45567 10.0636 8.2721 10.4986 9.23403C10.9335 10.196 11.0824 11.2627 10.9275 12.307C10.7726 13.3513 10.3204 14.3289 9.625 15.1231V20.4375C9.62587 20.6723 9.58393 20.9053 9.50125 21.125H18.5625C19.1095 21.125 19.6341 20.9077 20.0209 20.5209C20.4077 20.1341 20.625 19.6095 20.625 19.0625V7.375H17.1875ZM10.3125 6.6875C10.3125 6.50516 10.3849 6.3303 10.5139 6.20136C10.6428 6.07243 10.8177 6 11 6H13.0625C13.2448 6 13.4197 6.07243 13.5486 6.20136C13.6776 6.3303 13.75 6.50516 13.75 6.6875C13.75 6.86984 13.6776 7.0447 13.5486 7.17364C13.4197 7.30257 13.2448 7.375 13.0625 7.375H11C10.8177 7.375 10.6428 7.30257 10.5139 7.17364C10.3849 7.0447 10.3125 6.86984 10.3125 6.6875ZM17.1875 17.6875H11.6875C11.5052 17.6875 11.3303 17.6151 11.2014 17.4861C11.0724 17.3572 11 17.1823 11 17C11 16.8177 11.0724 16.6428 11.2014 16.5139C11.3303 16.3849 11.5052 16.3125 11.6875 16.3125H17.1875C17.3698 16.3125 17.5447 16.3849 17.6736 16.5139C17.8026 16.6428 17.875 16.8177 17.875 17C17.875 17.1823 17.8026 17.3572 17.6736 17.4861C17.5447 17.6151 17.3698 17.6875 17.1875 17.6875ZM17.1875 14.25H13.0625C12.8802 14.25 12.7053 14.1776 12.5764 14.0486C12.4474 13.9197 12.375 13.7448 12.375 13.5625C12.375 13.3802 12.4474 13.2053 12.5764 13.0764C12.7053 12.9474 12.8802 12.875 13.0625 12.875H17.1875C17.3698 12.875 17.5447 12.9474 17.6736 13.0764C17.8026 13.2053 17.875 13.3802 17.875 13.5625C17.875 13.7448 17.8026 13.9197 17.6736 14.0486C17.5447 14.1776 17.3698 14.25 17.1875 14.25ZM17.1875 10.8125H13.0625C12.8802 10.8125 12.7053 10.7401 12.5764 10.6111C12.4474 10.4822 12.375 10.3073 12.375 10.125C12.375 9.94266 12.4474 9.7678 12.5764 9.63886C12.7053 9.50993 12.8802 9.4375 13.0625 9.4375H17.1875C17.3698 9.4375 17.5447 9.50993 17.6736 9.63886C17.8026 9.7678 17.875 9.94266 17.875 10.125C17.875 10.3073 17.8026 10.4822 17.6736 10.6111C17.5447 10.7401 17.3698 10.8125 17.1875 10.8125Z" fill="white"/>
<path d="M2.75 16.2575V20.4375C2.75068 20.5732 2.79152 20.7057 2.86737 20.8183C2.94322 20.9308 3.0507 21.0184 3.17625 21.07C3.30145 21.1227 3.43944 21.137 3.57281 21.1113C3.70618 21.0856 3.82895 21.021 3.92563 20.9256L5.5 19.3444L7.07438 20.9256C7.13862 20.9894 7.2148 21.0398 7.29856 21.074C7.38233 21.1082 7.47202 21.1255 7.5625 21.125C7.65268 21.1273 7.74216 21.1085 7.82375 21.07C7.9493 21.0184 8.05678 20.9308 8.13263 20.8183C8.20848 20.7057 8.24932 20.5732 8.25 20.4375V16.2575C7.41505 16.7436 6.46616 16.9997 5.5 16.9997C4.53384 16.9997 3.58495 16.7436 2.75 16.2575Z" fill="white"/>
<path d="M5.5 15.625C7.77817 15.625 9.625 13.7782 9.625 11.5C9.625 9.22183 7.77817 7.375 5.5 7.375C3.22183 7.375 1.375 9.22183 1.375 11.5C1.375 13.7782 3.22183 15.625 5.5 15.625Z" fill="white"/>
</g>
</svg>
