<svg width="22" height="23" viewBox="0 0 22 23" fill="none" xmlns="http://www.w3.org/2000/svg">
<g opacity="0.8" clip-path="url(#clip0_374_7751)">
<path d="M21.3551 21.2109H20.7106V20.5664C20.7106 20.2102 20.4224 19.9219 20.0661 19.9219H1.93359C1.57726 19.9219 1.28906 20.2102 1.28906 20.5664V21.2109H0.644531C0.288361 21.2109 0 21.4993 0 21.8554C0 22.2118 0.288361 22.5 0.644531 22.5H21.3551C21.7115 22.5 21.9997 22.2118 21.9997 21.8554C21.9997 21.4993 21.7115 21.2109 21.3551 21.2109Z" fill="white"/>
<path d="M11 4.41049C10.6445 4.41049 10.3555 4.69935 10.3555 5.05502C10.3555 5.41052 10.6445 5.69938 11 5.69938C11.3557 5.69938 11.6445 5.41052 11.6445 5.05502C11.6445 4.69935 11.3557 4.41049 11 4.41049Z" fill="white"/>
<path d="M21.9662 7.87988C22.0543 7.61686 21.9637 7.32665 21.7416 7.16049L11.3863 0.62941C11.1572 0.456863 10.8425 0.456863 10.6134 0.62941L0.258069 7.16049C0.0358402 7.32665 -0.054797 7.61686 0.0333225 7.87988C0.120771 8.14306 0.367002 8.32047 0.644452 8.32047H21.3552C21.6327 8.32047 21.8787 8.14306 21.9662 7.87988ZM10.9998 7.03141C9.93359 7.03141 9.06616 6.12118 9.06616 5.05502C9.06616 3.98869 9.93359 3.12143 10.9998 3.12143C12.0659 3.12143 12.9333 3.98869 12.9333 5.05502C12.9333 6.12118 12.0659 7.03141 10.9998 7.03141Z" fill="white"/>
<path d="M2.57812 13.4767H5.19922V18.6328H2.57812V13.4767Z" fill="white"/>
<path d="M16.8438 13.4767H19.4217V18.6328H16.8438V13.4767Z" fill="white"/>
<path d="M9.71094 13.4767H12.2891V18.6328H9.71094V13.4767Z" fill="white"/>
<path d="M20.7106 11.5431V9.60954H1.28906V11.5431C1.28906 11.8993 1.57726 12.1877 1.93359 12.1877H20.0661C20.4224 12.1877 20.7106 11.8993 20.7106 11.5431Z" fill="white"/>
</g>
<defs>
<clipPath id="clip0_374_7751">
<rect width="22" height="22" fill="white" transform="translate(0 0.5)"/>
</clipPath>
</defs>
</svg>
