<svg width="23" height="23" viewBox="0 0 23 23" fill="none" xmlns="http://www.w3.org/2000/svg">
<g opacity="0.8" clip-path="url(#clip0_374_7822)">
<path d="M22.2088 7.85625C22.0742 7.70185 21.9074 7.57876 21.7202 7.49563C21.533 7.4125 21.3298 7.37132 21.125 7.375H6.34375V6.6875H7.71875V3.9375H0.5V6.6875H1.875V10.4688H0.5V13.2188H2.21875V12.1875C2.21875 12.0963 2.25497 12.0089 2.31943 11.9444C2.3839 11.88 2.47133 11.8438 2.5625 11.8438C2.65367 11.8438 2.7411 11.88 2.80557 11.9444C2.87003 12.0089 2.90625 12.0963 2.90625 12.1875V13.2188H5.3125V12.1875C5.3125 12.0963 5.34872 12.0089 5.41318 11.9444C5.47765 11.88 5.56508 11.8438 5.65625 11.8438C5.74742 11.8438 5.83485 11.88 5.89932 11.9444C5.96378 12.0089 6 12.0963 6 12.1875V13.2188H7.71875V10.4688H6.34375V9.78125H21.0985C21.1414 9.78469 21.1833 9.78641 21.2243 9.78641C21.5176 9.79967 21.806 9.70886 22.0387 9.53003C22.2715 9.3512 22.4335 9.09586 22.4962 8.80913C22.52 8.63897 22.5066 8.46568 22.457 8.30118C22.4074 8.13669 22.3227 7.9849 22.2088 7.85625ZM3.59375 9.09375C3.59375 9.18492 3.55753 9.27235 3.49307 9.33682C3.4286 9.40128 3.34117 9.4375 3.25 9.4375C3.15883 9.4375 3.0714 9.40128 3.00693 9.33682C2.94247 9.27235 2.90625 9.18492 2.90625 9.09375V8.75C2.90625 8.65883 2.94247 8.5714 3.00693 8.50693C3.0714 8.44247 3.15883 8.40625 3.25 8.40625C3.34117 8.40625 3.4286 8.44247 3.49307 8.50693C3.55753 8.5714 3.59375 8.65883 3.59375 8.75V9.09375ZM3.59375 7.71875C3.59375 7.80992 3.55753 7.89735 3.49307 7.96182C3.4286 8.02628 3.34117 8.0625 3.25 8.0625C3.15883 8.0625 3.0714 8.02628 3.00693 7.96182C2.94247 7.89735 2.90625 7.80992 2.90625 7.71875V7.375C2.90625 7.28383 2.94247 7.1964 3.00693 7.13193C3.0714 7.06747 3.15883 7.03125 3.25 7.03125C3.34117 7.03125 3.4286 7.06747 3.49307 7.13193C3.55753 7.1964 3.59375 7.28383 3.59375 7.375V7.71875Z" fill="white"/>
<path d="M1.53125 18.375H8.75V19.3633H1.53125V18.375Z" fill="white"/>
<path d="M0.5 20.0938H9.78125V22.5H0.5V20.0938Z" fill="white"/>
</g>
<defs>
<clipPath id="clip0_374_7822">
<rect width="22" height="22" fill="white" transform="translate(0.5 0.5)"/>
</clipPath>
</defs>
</svg>
