<svg width="22" height="23" viewBox="0 0 22 23" fill="none" xmlns="http://www.w3.org/2000/svg">
<g opacity="0.8">
<path d="M20.1875 11.8594V11.0738L18.5472 6.40263C18.9285 6.2542 19.2031 5.85925 19.2031 5.39062C19.2031 4.79514 18.7625 4.3125 18.2188 4.3125C17.7085 4.3125 17.2938 4.73944 17.2442 5.28389L12.5333 4.76783C12.3903 4.3452 12.1074 4.002 11.7448 3.79823L11 1.07812L10.2548 3.79823C9.89225 4.00236 9.60973 4.34556 9.46634 4.76783L4.75578 5.28389C4.70623 4.73944 4.29148 4.3125 3.78125 4.3125C3.23755 4.3125 2.79688 4.79514 2.79688 5.39062C2.79688 5.85925 3.07152 6.2542 3.4528 6.40263L1.8125 11.0738V11.8594H1.48438V12.9375C1.48438 13.3346 1.77805 13.6562 2.14062 13.6562H5.42188C5.78445 13.6562 6.07812 13.3346 6.07812 12.9375V11.8594H5.75V11.0738L4.1097 6.40263C4.46113 6.2657 4.71739 5.91819 4.75578 5.49736L9.46667 6.01342C9.62187 6.47091 9.93786 6.84142 10.3438 7.03584V19.4062H8.04688L7.0625 20.4844V21.9219H14.9375V20.4844L13.9531 19.4062H11.6562V7.03584C12.0625 6.84106 12.3785 6.47091 12.5333 6.01342L17.2442 5.49736C17.2826 5.91855 17.5389 6.2657 17.8903 6.40263L16.25 11.0738V11.8594H15.9219V12.9375C15.9219 13.3346 16.2155 13.6562 16.5781 13.6562H19.8594C20.222 13.6562 20.5156 13.3346 20.5156 12.9375V11.8594H20.1875ZM5.09375 11.8594H2.46875V11.2075L3.78125 7.47033L5.09375 11.2075V11.8594ZM16.9062 11.8594V11.2075L18.2188 7.47033L19.5312 11.2075V11.8594H16.9062Z" fill="white"/>
</g>
</svg>
