<svg width="23" height="22" viewBox="0 0 23 22" fill="none" xmlns="http://www.w3.org/2000/svg">
<g opacity="0.8" clip-path="url(#clip0_374_8234)">
<path d="M17.3529 5.14685L21.9054 6.0789L22.4996 0L16.4209 0.594345L17.3529 5.14685Z" fill="white"/>
<path d="M17.0173 6.39445L9.91406 13.4977L11.9455 15.5293L21.3905 7.28975L17.0173 6.39445Z" fill="white"/>
<path d="M0.5 18.8755L2.57005 16.8055L5.69433 19.9298L3.62429 21.9998L0.5 18.8755Z" fill="white"/>
<path d="M4.8361 10.243C4.28993 10.9102 3.99267 11.7384 3.99267 12.6122C3.99267 13.3791 4.22212 14.1104 4.64744 14.7289L3.48242 15.8937L6.60671 19.018L7.77223 17.8525C8.40753 18.2876 9.14773 18.5061 9.88827 18.5061C10.7293 18.5061 11.5704 18.2255 12.2574 17.6644L4.8361 10.243Z" fill="white"/>
<path d="M9.00231 12.5858L16.1056 5.48254L15.2101 1.1093L6.9707 10.5544L9.00231 12.5858Z" fill="white"/>
</g>
<defs>
<clipPath id="clip0_374_8234">
<rect width="22" height="22" fill="white" transform="translate(0.5)"/>
</clipPath>
</defs>
</svg>
