<svg width="64" height="64" viewBox="0 0 64 64" fill="none" xmlns="http://www.w3.org/2000/svg">
<path d="M55.4203 10.2C55.0772 9.71226 54.6406 9.29754 54.1359 8.97995C53.6312 8.66236 53.0684 8.44824 52.4803 8.35001L27.1903 4.06001C26.5524 3.9613 25.9009 3.99707 25.2777 4.16503C24.6544 4.33299 24.0732 4.62941 23.5713 5.03528C23.0694 5.44115 22.6579 5.94749 22.3632 6.52179C22.0686 7.09609 21.8973 7.72566 21.8604 8.37008C22.6081 8.36608 36.2469 8.3728 37.4603 8.37C39.3161 8.37204 41.0954 9.11019 42.4078 10.4225C43.7201 11.7348 44.4582 13.5141 44.4603 15.37V34.85C47.2459 34.9408 49.9282 35.926 52.1103 37.66L56.2003 13.58C56.3002 12.993 56.2827 12.3921 56.1488 11.8119C56.0149 11.2317 55.7673 10.6838 55.4203 10.2Z" fill="white"/>
<path d="M44.0001 36.84C41.0532 36.8443 38.2282 38.0175 36.1453 40.1023C34.0625 42.1871 32.8917 45.013 32.8901 47.96C33.5026 62.6989 54.4999 62.6946 55.1101 47.9599C55.1085 45.013 53.9378 42.187 51.8549 40.1023C49.772 38.0175 46.9471 36.8443 44.0001 36.84ZM44.0001 46.96C44.8175 46.968 45.6053 47.2673 46.2218 47.804C46.8383 48.3408 47.2432 49.0798 47.3637 49.8883C47.4841 50.6968 47.3123 51.5218 46.8791 52.2149C46.4458 52.9081 45.7796 53.424 45 53.67L45.0001 55.01C45.0001 55.2752 44.8948 55.5296 44.7072 55.7171C44.5197 55.9047 44.2654 56.01 44.0001 56.01C43.7349 56.01 43.4806 55.9047 43.293 55.7171C43.1055 55.5296 43.0001 55.2752 43.0001 55.01V53.67C42.2984 53.4537 41.6841 53.0187 41.247 52.4287C40.8099 51.8387 40.5727 51.1244 40.5701 50.39C40.5701 50.1248 40.6755 49.8705 40.863 49.6829C41.0506 49.4954 41.3049 49.39 41.5701 49.39C41.8354 49.39 42.0897 49.4954 42.2772 49.6829C42.4648 49.8705 42.5701 50.1248 42.5701 50.39C42.5701 50.6729 42.654 50.9493 42.8111 51.1845C42.9683 51.4197 43.1916 51.6029 43.4529 51.7112C43.7142 51.8194 44.0017 51.8477 44.2791 51.7925C44.5565 51.7374 44.8113 51.6012 45.0113 51.4012C45.2113 51.2012 45.3475 50.9464 45.4027 50.669C45.4578 50.3916 45.4295 50.1041 45.3213 49.8428C45.2131 49.5815 45.0298 49.3582 44.7946 49.201C44.5594 49.0439 44.283 48.96 44.0001 48.96C43.1781 48.9602 42.3833 48.6651 41.7606 48.1284C41.1379 47.5917 40.7287 46.8492 40.6075 46.0361C40.4863 45.223 40.6612 44.3935 41.1004 43.6985C41.5396 43.0036 42.2137 42.4896 43.0001 42.25V40.9C43.0001 40.6348 43.1055 40.3805 43.293 40.1929C43.4806 40.0054 43.7349 39.9 44.0001 39.9C44.2654 39.9 44.5197 40.0054 44.7072 40.1929C44.8948 40.3805 45.0001 40.6348 45.0001 40.9V42.25C45.702 42.4629 46.317 42.8955 46.7545 43.4842C47.192 44.0729 47.4288 44.7866 47.4301 45.52C47.4254 45.7821 47.318 46.0319 47.131 46.2156C46.9439 46.3993 46.6923 46.5023 46.4301 46.5023C46.1679 46.5023 45.9163 46.3993 45.7292 46.2156C45.5422 46.0319 45.4348 45.7821 45.4301 45.52C45.4282 45.2376 45.3426 44.9621 45.1843 44.7283C45.0259 44.4944 44.8019 44.3127 44.5404 44.206C44.279 44.0993 43.9918 44.0724 43.715 44.1287C43.4383 44.1851 43.1845 44.322 42.9855 44.5224C42.7865 44.7228 42.6513 44.9776 42.5969 45.2547C42.5426 45.5318 42.5715 45.8189 42.68 46.0796C42.7885 46.3403 42.9718 46.563 43.2067 46.7197C43.4417 46.8764 43.7177 46.96 44.0001 46.96Z" fill="white"/>
<path d="M33.6502 56C27.3451 48.0801 32.5107 35.9906 42.4604 34.9301L42.4602 15.37C42.4597 14.0441 41.9328 12.7726 40.9952 11.835C40.0576 10.8974 38.7862 10.3705 37.4602 10.37H12.7402C11.4143 10.3705 10.1428 10.8974 9.20523 11.835C8.26765 12.7726 7.74071 14.0441 7.74023 15.37V55C7.74071 56.3259 8.26765 57.5974 9.20523 58.535C10.1428 59.4726 11.4143 59.9995 12.7402 60H37.4602C37.8236 60.0007 38.1859 59.9605 38.5402 59.88C36.6213 58.9998 34.9436 57.6686 33.6502 56ZM12.7502 16C12.7553 15.7382 12.863 15.4888 13.0499 15.3054C13.2369 15.122 13.4884 15.0193 13.7503 15.0193C14.0122 15.0193 14.2636 15.1221 14.4506 15.3054C14.6375 15.4888 14.7451 15.7382 14.7502 16.0001V27.12H16.3402V20.12C16.3453 19.8582 16.453 19.6088 16.6399 19.4254C16.8269 19.242 17.0784 19.1393 17.3403 19.1393C17.6022 19.1393 17.8536 19.2421 18.0406 19.4254C18.2275 19.6088 18.3351 19.8582 18.3402 20.1201V27.12H20.6102V22.06C20.614 21.7972 20.7209 21.5465 20.9081 21.362C21.0952 21.1775 21.3474 21.074 21.6102 21.074C21.873 21.074 22.1253 21.1775 22.3124 21.362C22.4995 21.5465 22.6065 21.7972 22.6102 22.06V27.12H24.8802V24.67C24.8802 24.4048 24.9856 24.1504 25.1731 23.9629C25.3607 23.7754 25.615 23.67 25.8802 23.67C26.1455 23.67 26.3998 23.7754 26.5873 23.9629C26.7749 24.1504 26.8802 24.4048 26.8802 24.67V27.12H29.2502C29.5155 27.12 29.7698 27.2254 29.9573 27.4129C30.1449 27.6004 30.2502 27.8548 30.2502 28.12C30.2502 28.3852 30.1449 28.6396 29.9573 28.8271C29.7698 29.0146 29.5155 29.12 29.2502 29.12H13.7502C13.6188 29.1205 13.4885 29.0949 13.367 29.0448C13.2455 28.9947 13.1351 28.9211 13.0421 28.8281C12.9492 28.7352 12.8755 28.6247 12.8254 28.5032C12.7753 28.3817 12.7498 28.2514 12.7502 28.12V16ZM14.4702 53.72H29.2502C29.5128 53.7241 29.7632 53.8312 29.9474 54.0183C30.1316 54.2054 30.2348 54.4575 30.2348 54.72C30.2348 54.9826 30.1316 55.2346 29.9473 55.4217C29.7631 55.6088 29.5127 55.7159 29.2502 55.72H14.4702C14.2077 55.7159 13.9573 55.6088 13.7731 55.4217C13.5889 55.2346 13.4856 54.9826 13.4856 54.72C13.4856 54.4574 13.5889 54.2054 13.7731 54.0183C13.9573 53.8312 14.2077 53.7241 14.4702 53.72ZM13.4702 47.7C13.471 47.435 13.5766 47.1811 13.764 46.9937C13.9513 46.8064 14.2053 46.7008 14.4702 46.7H27.3302C27.5955 46.7 27.8498 46.8054 28.0373 46.9929C28.2249 47.1804 28.3302 47.4348 28.3302 47.7C28.3302 47.9652 28.2249 48.2196 28.0373 48.4071C27.8498 48.5946 27.5955 48.7 27.3302 48.7H14.4702C14.2053 48.6992 13.9514 48.5936 13.764 48.4062C13.5766 48.2189 13.471 47.965 13.4702 47.7ZM29.4802 41.68H14.4702C14.2076 41.6761 13.957 41.569 13.7727 41.3819C13.5883 41.1948 13.485 40.9427 13.485 40.68C13.485 40.4173 13.5883 40.1652 13.7727 39.9781C13.957 39.791 14.2076 39.6839 14.4702 39.68H29.4802C29.7429 39.6839 29.9935 39.791 30.1778 39.9781C30.3622 40.1652 30.4655 40.4173 30.4655 40.68C30.4655 40.9427 30.3622 41.1948 30.1778 41.3819C29.9935 41.569 29.7429 41.6761 29.4802 41.68ZM35.7302 34.67H14.4702C14.205 34.67 13.9507 34.5646 13.7631 34.3771C13.5756 34.1896 13.4702 33.9352 13.4702 33.67C13.4702 33.4048 13.5756 33.1504 13.7631 32.9629C13.9507 32.7754 14.205 32.67 14.4702 32.67H35.7302C35.9928 32.6741 36.2432 32.7812 36.4274 32.9683C36.6116 33.1554 36.7149 33.4074 36.7149 33.67C36.7149 33.9326 36.6116 34.1846 36.4274 34.3717C36.2432 34.5588 35.9928 34.6659 35.7302 34.67Z" fill="white"/>
</svg>
