<svg width="74" height="74" viewBox="0 0 74 74" fill="none" xmlns="http://www.w3.org/2000/svg">
<path d="M64.0384 59.0577H69.7306C69.7306 63.7738 65.9084 67.5962 61.1922 67.5962H12.8075C10.4495 67.5962 8.3149 66.6399 6.76941 65.0959C5.2254 63.5505 4.26904 61.4158 4.26904 59.0578H9.9614H30.5961V61.904H43.4037V59.0578H64.0384V59.0577Z" fill="white"/>
<path d="M66.8846 20.4211V55.2865C66.8846 57.0781 65.6806 58.588 64.0383 59.052V59.0577H43.4037V61.9039H30.5962V59.0577H9.96146V59.0534C8.31921 58.5881 7.11523 57.0781 7.11523 55.2865V20.4211C7.11523 18.2595 8.867 16.5076 11.0287 16.5076H26.3267V22.0576H12.8076V53.3653H61.1922C61.1922 50.5031 61.1922 26.2316 61.1922 22.0576H53.6927H47.6731V16.5076H55.4872H62.9712C65.1326 16.5076 66.8846 18.2595 66.8846 20.4211Z" fill="#414141"/>
<path d="M62.9714 5.69232C64.7403 5.69232 66.1733 7.12533 66.1733 8.89421C66.1733 10.6631 64.7403 12.0961 62.9714 12.0961C61.2025 12.0961 59.7695 10.6631 59.7695 8.89421C59.7695 7.12533 61.2024 5.69232 62.9714 5.69232Z" fill="white"/>
<path d="M12.8076 49.0962H61.1922V53.3653H12.8076V49.0962Z" fill="#414141"/>
<path d="M44.8268 22.0576V21.3461H29.173V22.0576C25.7606 22.0576 16.7284 22.0576 12.8076 22.0576V49.0961H61.1922C61.1922 45.8965 61.1922 26.0254 61.1922 22.0576C57.3726 22.0576 47.5705 22.0576 44.8268 22.0576Z" fill="white"/>
<path d="M55.8558 7.11536C56.4453 7.11536 56.9231 6.63753 56.9231 6.0481C56.9231 5.45867 56.4453 4.98083 55.8558 4.98083C55.2664 4.98083 54.7886 5.45867 54.7886 6.0481C54.7886 6.63753 55.2664 7.11536 55.8558 7.11536Z" fill="#9C9C9C"/>
<path d="M53.3656 29.2442V33.3711C53.3656 34.1965 52.6968 34.8654 51.8714 34.8654H50.5195V27.75H51.8714C52.6967 27.75 53.3656 28.4189 53.3656 29.2442Z" fill="white"/>
<path d="M52.2982 12.8076C52.8877 12.8076 53.3655 12.3298 53.3655 11.7404C53.3655 11.1509 52.8877 10.6731 52.2982 10.6731C51.7088 10.6731 51.231 11.1509 51.231 11.7404C51.231 12.3298 51.7088 12.8076 52.2982 12.8076Z" fill="#9C9C9C"/>
<path d="M43.4038 34.1539V26.344C43.4038 25.5542 44.0384 24.9139 44.8269 24.9039H44.8454H47.673H49.0791C49.8746 24.9039 50.5192 25.5485 50.5192 26.344V27.75V34.8654V35.5599C50.5192 36.3554 49.8745 37 49.0791 37H47.673H44.8454C44.0485 37 43.4038 36.3554 43.4038 35.5599V34.1539Z" fill="#414141"/>
<path d="M47.6733 22.0576V24.9038H44.8456C44.8399 24.9038 44.8328 24.9038 44.8271 24.9038V21.3461V16.3653C44.8271 14.2037 43.9505 12.247 42.5346 10.831C41.1185 9.41499 39.1617 8.53836 37.0003 8.53836C32.677 8.53836 29.1734 12.042 29.1734 16.3652V21.346V24.9037C29.1676 24.9037 29.162 24.9037 29.1563 24.9037H26.3271V22.0575V16.5075V16.3652C26.3271 10.4708 31.1059 5.69214 37.0003 5.69214C39.9474 5.69214 42.6158 6.88752 44.5469 8.81864C46.478 10.7498 47.6734 13.418 47.6734 16.3652V16.5075L47.6733 22.0576Z" fill="white"/>
<path d="M29.1729 16.3654H44.8266V21.3461H29.1729V16.3654Z" fill="#414141"/>
<path d="M30.5963 34.1539V35.5599C30.5963 36.3554 29.9516 37 29.1562 37H24.9225C24.1256 37 23.481 36.3554 23.481 35.5599V34.8654V27.75V26.344C23.481 25.5485 24.1256 24.9039 24.9225 24.9039H26.3271H29.1561H29.1732C29.9615 24.9138 30.5963 25.5542 30.5963 26.344V34.1539Z" fill="#414141"/>
<path d="M24.5482 8.5384C25.1377 8.5384 25.6155 8.06057 25.6155 7.47113C25.6155 6.8817 25.1377 6.40387 24.5482 6.40387C23.9588 6.40387 23.481 6.8817 23.481 7.47113C23.481 8.06057 23.9588 8.5384 24.5482 8.5384Z" fill="#9C9C9C"/>
<path d="M23.4809 27.75V34.8654H22.129C21.3036 34.8654 20.6348 34.1966 20.6348 33.3711V29.2442C20.6348 28.4189 21.3035 27.75 22.129 27.75H23.4809Z" fill="white"/>
<path d="M14.9422 8.53845C16.1205 8.53845 17.0769 9.49472 17.0769 10.6731C17.0769 11.8513 16.1206 12.8077 14.9422 12.8077C13.7639 12.8077 12.8076 11.8514 12.8076 10.6731C12.8075 9.49472 13.7639 8.53845 14.9422 8.53845Z" fill="white"/>
<path d="M8.18259 14.2308C8.77208 14.2308 9.24995 13.753 9.24995 13.1635C9.24995 12.574 8.77208 12.0961 8.18259 12.0961C7.59311 12.0961 7.11523 12.574 7.11523 13.1635C7.11523 13.753 7.59311 14.2308 8.18259 14.2308Z" fill="#9C9C9C"/>
<path d="M61.1922 68.3077H12.8076C10.3377 68.3077 8.01473 67.3457 6.26657 65.5991C4.51943 63.8507 3.55762 61.5274 3.55762 59.0577C3.55762 58.6646 3.87609 58.3462 4.26913 58.3462H30.5962C30.989 58.3462 31.3077 58.6646 31.3077 59.0577V61.1922H42.6922V59.0577C42.6922 58.6646 43.0107 58.3462 43.4038 58.3462H69.7306C70.1236 58.3462 70.4421 58.6646 70.4421 59.0577C70.4422 64.1581 66.2928 68.3077 61.1922 68.3077ZM5.01246 59.7692C5.17553 61.5908 5.96373 63.2825 7.27297 64.5928C8.75177 66.0704 10.7175 66.8845 12.8075 66.8845H61.1921C65.2683 66.8845 68.6265 63.7529 68.987 59.7691H44.1154V61.9036C44.1154 62.2968 43.7968 62.6152 43.4038 62.6152H30.5962C30.2031 62.6152 29.8847 62.2968 29.8847 61.9036V59.7691L5.01246 59.7692Z" fill="#9C9C9C"/>
<path d="M61.1923 54.0769H12.8077C12.4147 54.0769 12.0962 53.7584 12.0962 53.3654V22.0576C12.0962 21.6647 12.4147 21.3461 12.8077 21.3461H26.3269C26.7199 21.3461 27.0385 21.6648 27.0385 22.0576C27.0385 22.4505 26.7199 22.7692 26.3269 22.7692H13.5193V52.6538H60.4808V22.7692H47.6732C47.2801 22.7692 46.9617 22.4506 46.9617 22.0577C46.9617 21.6649 47.2801 21.3462 47.6732 21.3462H61.1923C61.5853 21.3462 61.9038 21.6649 61.9038 22.0577V53.3654C61.9038 53.7584 61.5853 54.0769 61.1923 54.0769Z" fill="#9C9C9C"/>
<path d="M64.0379 59.7637C63.7274 59.7637 63.4421 59.5591 63.3535 59.2454C63.2467 58.8673 63.4668 58.4739 63.8449 58.3672C65.2156 57.9801 66.173 56.7131 66.173 55.2865V20.4211C66.173 18.6556 64.7366 17.2192 62.9711 17.2192H47.6729C47.2799 17.2192 46.9614 16.9006 46.9614 16.5077C46.9614 16.1149 47.2799 15.7962 47.6729 15.7962H62.9711C65.5212 15.7962 67.5961 17.8711 67.5961 20.4212V55.2866C67.5961 57.3472 66.2125 59.1773 64.2317 59.7368C64.1669 59.755 64.1019 59.7637 64.0379 59.7637Z" fill="#9C9C9C"/>
<path d="M9.96173 59.7651C9.89753 59.7651 9.83241 59.7564 9.76748 59.7381C7.78696 59.1768 6.40381 57.3465 6.40381 55.2865V20.4211C6.40381 17.871 8.47849 15.7961 11.0288 15.7961H26.3268C26.7198 15.7961 27.0383 16.1148 27.0383 16.5077C27.0383 16.9005 26.7198 17.2192 26.3268 17.2192H11.0288C9.26317 17.2192 7.82683 18.6555 7.82683 20.4211V55.2864C7.82683 56.7128 8.78448 57.9803 10.1552 58.3686C10.5334 58.4757 10.7531 58.8691 10.646 59.2473C10.5573 59.5606 10.2722 59.7651 9.96173 59.7651Z" fill="#9C9C9C"/>
<path d="M29.1559 37.7115H24.9222C23.7349 37.7115 22.769 36.7461 22.769 35.5597V34.8652C22.769 34.4723 23.0875 34.1537 23.4806 34.1537C23.8735 34.1537 24.1921 34.4723 24.1921 34.8652V35.5597C24.1921 35.9615 24.5195 36.2884 24.9221 36.2884H29.1558C29.5575 36.2884 29.8844 35.9615 29.8844 35.5597V26.344C29.8844 25.9472 29.5612 25.6203 29.1638 25.6152L29.1558 25.6153H24.9221C24.5195 25.6153 24.1921 25.9422 24.1921 26.344V27.75C24.1921 28.1429 23.8734 28.4615 23.4806 28.4615C23.0874 28.4615 22.769 28.1428 22.769 27.75V26.344C22.769 25.1576 23.7348 24.1923 24.9222 24.1923H29.1729C30.354 24.2071 31.3075 25.1724 31.3075 26.344V35.5598C31.3076 36.7462 30.3423 37.7115 29.1559 37.7115Z" fill="#9C9C9C"/>
<path d="M49.0792 37.7115H44.8455C43.6583 37.7115 42.6924 36.7461 42.6924 35.5597V26.344C42.6924 25.1724 43.6459 24.207 44.8179 24.1923H44.8456H49.0793C50.2657 24.1923 51.231 25.1576 51.231 26.344V27.75C51.231 28.1429 50.9124 28.4615 50.5195 28.4615C50.1264 28.4615 49.808 28.1428 49.808 27.75V26.344C49.808 25.9422 49.4811 25.6153 49.0794 25.6153H44.8272C44.4389 25.6203 44.1157 25.9472 44.1157 26.344V35.5598C44.1157 35.9616 44.4431 36.2885 44.8458 36.2885H49.0795C49.4812 36.2885 49.8081 35.9616 49.8081 35.5598V34.8653C49.8081 34.4724 50.1265 34.1538 50.5196 34.1538C50.9125 34.1538 51.2311 34.4724 51.2311 34.8653V35.5598C51.2309 36.7462 50.2656 37.7115 49.0792 37.7115Z" fill="#9C9C9C"/>
<path d="M51.871 35.5768H50.5191C50.126 35.5768 49.8076 35.2583 49.8076 34.8653V27.75C49.8076 27.357 50.126 27.0385 50.5191 27.0385H51.871C53.0872 27.0385 54.0768 28.0279 54.0768 29.2442V33.3711C54.0767 34.5874 53.0872 35.5768 51.871 35.5768ZM51.2305 34.1538H51.871C52.3024 34.1538 52.6537 33.8028 52.6537 33.3711V29.2442C52.6537 28.8126 52.3024 28.4616 51.871 28.4616H51.2305V34.1538Z" fill="#9C9C9C"/>
<path d="M23.4805 35.5768H22.1286C20.9123 35.5768 19.9229 34.5874 19.9229 33.3711V29.2442C19.9229 28.0279 20.9123 27.0385 22.1286 27.0385H23.4805C23.8734 27.0385 24.192 27.3571 24.192 27.75V34.8653C24.1921 35.2583 23.8734 35.5768 23.4805 35.5768ZM22.1286 28.4615C21.6969 28.4615 21.3459 28.8125 21.3459 29.2441V33.371C21.3459 33.8027 21.6969 34.1537 22.1286 34.1537H22.769V28.4614L22.1286 28.4615Z" fill="#9C9C9C"/>
<path d="M44.8267 25.6154C44.4337 25.6154 44.1152 25.2968 44.1152 24.9039V16.3654C44.1152 14.4651 43.3751 12.6783 42.031 11.3342C40.6869 9.99029 38.9001 9.25002 36.9998 9.25002C33.0764 9.25002 29.8844 12.442 29.8844 16.3654V24.9039C29.8844 25.2968 29.5659 25.6154 29.1729 25.6154C28.7799 25.6154 28.4614 25.2968 28.4614 24.9039V16.3654C28.4614 11.6573 32.2918 7.8269 36.9999 7.8269C39.2802 7.8269 41.4246 8.71509 43.0375 10.3278C44.6503 11.9407 45.5384 14.0849 45.5384 16.3654V24.9039C45.5383 25.2968 45.2197 25.6154 44.8267 25.6154Z" fill="#9C9C9C"/>
<path d="M47.6729 25.6154C47.2798 25.6154 46.9614 25.2968 46.9614 24.9039V16.3654C46.9614 13.7051 45.9251 11.2038 44.0432 9.32198C42.1614 7.44016 39.66 6.40389 36.9998 6.40389C31.5068 6.40389 27.0383 10.8727 27.0383 16.3654V24.9039C27.0383 25.2968 26.7197 25.6154 26.3267 25.6154C25.9337 25.6154 25.6152 25.2968 25.6152 24.9039V16.3654C25.6152 10.088 30.7224 4.98077 36.9999 4.98077C40.0401 4.98077 42.8989 6.16524 45.0495 8.31577C47.2 10.4664 48.3845 13.325 48.3845 16.3654V24.9039C48.3844 25.2968 48.0658 25.6154 47.6729 25.6154Z" fill="#9C9C9C"/>
<path d="M36.2876 45.5386C35.9519 45.5386 35.6533 45.3 35.589 44.9582C35.5165 44.5718 35.771 44.2002 36.1573 44.1276L46.9616 42.1019V37C46.9616 36.6069 47.2801 36.2885 47.6731 36.2885C48.066 36.2885 48.3846 36.6069 48.3846 37V42.6922C48.3846 43.0347 48.1407 43.3285 47.8042 43.3916L36.4195 45.5262C36.3752 45.5347 36.3312 45.5386 36.2876 45.5386Z" fill="#9C9C9C"/>
<path d="M44.8267 17.0769H29.1729C28.7799 17.0769 28.4614 16.7583 28.4614 16.3654C28.4614 15.9724 28.7799 15.6539 29.1729 15.6539H44.8267C45.2197 15.6539 45.5382 15.9724 45.5382 16.3654C45.5383 16.7583 45.2197 17.0769 44.8267 17.0769Z" fill="#9C9C9C"/>
<path d="M44.8267 22.0576H29.1729C28.7799 22.0576 28.4614 21.739 28.4614 21.3461C28.4614 20.9532 28.7799 20.6346 29.1729 20.6346H44.8267C45.2197 20.6346 45.5382 20.9532 45.5382 21.3461C45.5383 21.739 45.2197 22.0576 44.8267 22.0576Z" fill="#9C9C9C"/>
<path d="M30.596 34.8653H26.3267C25.9337 34.8653 25.6152 34.5468 25.6152 34.1538C25.6152 33.7609 25.9337 33.4423 26.3267 33.4423H30.596C30.9888 33.4423 31.3075 33.7609 31.3075 34.1538C31.3075 34.5468 30.9888 34.8653 30.596 34.8653Z" fill="#9C9C9C"/>
<path d="M47.6732 34.8653H43.4039C43.0109 34.8653 42.6924 34.5468 42.6924 34.1538C42.6924 33.7609 43.0109 33.4423 43.4039 33.4423H47.6731C48.0661 33.4423 48.3846 33.7609 48.3846 34.1538C48.3847 34.5468 48.0662 34.8653 47.6732 34.8653Z" fill="#9C9C9C"/>
<path d="M61.1923 49.8077H12.8077C12.4147 49.8077 12.0962 49.4892 12.0962 49.0962C12.0962 48.7031 12.4147 48.3847 12.8077 48.3847H61.1923C61.5853 48.3847 61.9038 48.7031 61.9038 49.0962C61.9038 49.4892 61.5853 49.8077 61.1923 49.8077Z" fill="#9C9C9C"/>
<path d="M14.9424 13.5193C13.3731 13.5193 12.0962 12.2425 12.0962 10.6731C12.0962 9.10377 13.373 7.8269 14.9424 7.8269C16.5116 7.8269 17.7885 9.10368 17.7885 10.6731C17.7885 12.2425 16.5116 13.5193 14.9424 13.5193ZM14.9424 9.25002C14.1576 9.25002 13.5193 9.88836 13.5193 10.6731C13.5193 11.4578 14.1576 12.0961 14.9424 12.0961C15.7271 12.0961 16.3654 11.4578 16.3654 10.6731C16.3654 9.88836 15.727 9.25002 14.9424 9.25002Z" fill="#9C9C9C"/>
<path d="M62.9711 12.8076C60.8132 12.8076 59.0576 11.0521 59.0576 8.89414C59.0576 6.73621 60.8132 4.98065 62.9711 4.98065C65.1289 4.98065 66.8846 6.73621 66.8846 8.89414C66.8846 11.0521 65.1289 12.8076 62.9711 12.8076ZM62.9711 6.40386C61.5979 6.40386 60.4806 7.52107 60.4806 8.89423C60.4806 10.2674 61.5979 11.3846 62.9711 11.3846C64.3443 11.3846 65.4615 10.2673 65.4615 8.89423C65.4615 7.52116 64.3442 6.40386 62.9711 6.40386Z" fill="#9C9C9C"/>
<path d="M21.3462 46.9615H12.8077C12.4147 46.9615 12.0962 46.643 12.0962 46.25C12.0962 45.8569 12.4147 45.5385 12.8077 45.5385H21.3462C21.7391 45.5385 22.0577 45.8569 22.0577 46.25C22.0577 46.643 21.7391 46.9615 21.3462 46.9615Z" fill="#9C9C9C"/>
<path d="M19.9231 44.1153H12.8077C12.4147 44.1153 12.0962 43.797 12.0962 43.4038C12.0962 43.0108 12.4147 42.6923 12.8077 42.6923H19.9231C20.316 42.6923 20.6346 43.0108 20.6346 43.4038C20.6346 43.7969 20.3159 44.1153 19.9231 44.1153Z" fill="#9C9C9C"/>
<path d="M18.5001 41.2692H12.8077C12.4147 41.2692 12.0962 40.9507 12.0962 40.5577C12.0962 40.1646 12.4147 39.8462 12.8077 39.8462H18.5001C18.893 39.8462 19.2116 40.1646 19.2116 40.5577C19.2116 40.9507 18.893 41.2692 18.5001 41.2692Z" fill="#9C9C9C"/>
<path d="M61.1924 46.9615H52.6539C52.2609 46.9615 51.9424 46.643 51.9424 46.25C51.9424 45.8569 52.2609 45.5385 52.6539 45.5385H61.1924C61.5853 45.5385 61.9039 45.8569 61.9039 46.25C61.9039 46.643 61.5853 46.9615 61.1924 46.9615Z" fill="#9C9C9C"/>
<path d="M61.1921 44.1153H54.0767C53.6837 44.1153 53.3652 43.797 53.3652 43.4038C53.3652 43.0108 53.6837 42.6923 54.0767 42.6923H61.1921C61.5851 42.6923 61.9036 43.0108 61.9036 43.4038C61.9036 43.7969 61.5851 44.1153 61.1921 44.1153Z" fill="#9C9C9C"/>
<path d="M61.1924 41.2692H55.5001C55.1071 41.2692 54.7886 40.9507 54.7886 40.5577C54.7886 40.1646 55.1071 39.8462 55.5001 39.8462H61.1924C61.5853 39.8462 61.9039 40.1646 61.9039 40.5577C61.9039 40.9507 61.5853 41.2692 61.1924 41.2692Z" fill="#9C9C9C"/>
</svg>
