<svg width="87" height="77" viewBox="0 0 87 77" fill="none" xmlns="http://www.w3.org/2000/svg">
<g style="mix-blend-mode:hard-light" clip-path="url(#clip0_374_1658)">
<path d="M25.8744 54.4414H61.1257C62.5163 54.4414 63.6437 53.4314 63.6437 52.1855V22.8594H71.1975C72.5881 22.8594 73.7155 21.8494 73.7155 20.6035V6.76758C73.7155 3.03594 70.3268 0 66.1616 0H30.9103C26.7451 0 23.3564 3.03594 23.3564 6.76758V52.1855C23.3564 53.4314 24.4838 54.4414 25.8744 54.4414ZM68.6796 18.3477H63.6437V6.76758C63.6437 5.5237 64.7732 4.51172 66.1616 4.51172C67.55 4.51172 68.6796 5.5237 68.6796 6.76758V18.3477ZM28.3923 6.76758C28.3923 5.5237 29.5219 4.51172 30.9103 4.51172H59.0408C58.7614 5.2178 58.6078 5.97682 58.6078 6.76758V49.9297C56.0426 49.9297 32.4597 49.9297 28.3923 49.9297V6.76758Z" fill="url(#paint0_linear_374_1658)"/>
<path d="M25.8744 54.4414H61.1257C62.5163 54.4414 63.6437 53.4314 63.6437 52.1855V22.8594H71.1975C72.5881 22.8594 73.7155 21.8494 73.7155 20.6035V6.76758C73.7155 3.03594 70.3268 0 66.1616 0H30.9103C26.7451 0 23.3564 3.03594 23.3564 6.76758V52.1855C23.3564 53.4314 24.4838 54.4414 25.8744 54.4414ZM68.6796 18.3477H63.6437V6.76758C63.6437 5.5237 64.7732 4.51172 66.1616 4.51172C67.55 4.51172 68.6796 5.5237 68.6796 6.76758V18.3477ZM28.3923 6.76758C28.3923 5.5237 29.5219 4.51172 30.9103 4.51172H59.0408C58.7614 5.2178 58.6078 5.97682 58.6078 6.76758V49.9297C56.0426 49.9297 32.4597 49.9297 28.3923 49.9297V6.76758Z" fill="url(#paint1_linear_374_1658)"/>
<path d="M35.9462 27.3711H51.0539C52.4445 27.3711 53.5718 26.3611 53.5718 25.1152C53.5718 23.8694 52.4445 22.8594 51.0539 22.8594H35.9462C34.5556 22.8594 33.4282 23.8694 33.4282 25.1152C33.4282 26.3611 34.5556 27.3711 35.9462 27.3711Z" fill="url(#paint2_linear_374_1658)"/>
<path d="M35.9462 27.3711H51.0539C52.4445 27.3711 53.5718 26.3611 53.5718 25.1152C53.5718 23.8694 52.4445 22.8594 51.0539 22.8594H35.9462C34.5556 22.8594 33.4282 23.8694 33.4282 25.1152C33.4282 26.3611 34.5556 27.3711 35.9462 27.3711Z" fill="url(#paint3_linear_374_1658)"/>
<path d="M51.0539 36.3945C52.4445 36.3945 53.5718 35.3845 53.5718 34.1387C53.5718 32.8928 52.4445 31.8828 51.0539 31.8828H35.9462C34.5556 31.8828 33.4282 32.8928 33.4282 34.1387C33.4282 35.3845 34.5556 36.3945 35.9462 36.3945H51.0539Z" fill="url(#paint4_linear_374_1658)"/>
<path d="M51.0539 36.3945C52.4445 36.3945 53.5718 35.3845 53.5718 34.1387C53.5718 32.8928 52.4445 31.8828 51.0539 31.8828H35.9462C34.5556 31.8828 33.4282 32.8928 33.4282 34.1387C33.4282 35.3845 34.5556 36.3945 35.9462 36.3945H51.0539Z" fill="url(#paint5_linear_374_1658)"/>
<path d="M46.0177 40.9062H40.9818C39.5912 40.9062 38.4639 41.9163 38.4639 43.1621C38.4639 44.4079 39.5912 45.418 40.9818 45.418H46.0177C47.4083 45.418 48.5357 44.4079 48.5357 43.1621C48.5357 41.9163 47.4083 40.9062 46.0177 40.9062Z" fill="url(#paint6_linear_374_1658)"/>
<path d="M46.0177 40.9062H40.9818C39.5912 40.9062 38.4639 41.9163 38.4639 43.1621C38.4639 44.4079 39.5912 45.418 40.9818 45.418H46.0177C47.4083 45.418 48.5357 44.4079 48.5357 43.1621C48.5357 41.9163 47.4083 40.9062 46.0177 40.9062Z" fill="url(#paint7_linear_374_1658)"/>
<path d="M40.9818 18.3477H46.0177C47.4083 18.3477 48.5357 17.3376 48.5357 16.0918C48.5357 14.846 47.4083 13.8359 46.0177 13.8359H40.9818C39.5912 13.8359 38.4639 14.846 38.4639 16.0918C38.4639 17.3376 39.5912 18.3477 40.9818 18.3477Z" fill="url(#paint8_linear_374_1658)"/>
<path d="M40.9818 18.3477H46.0177C47.4083 18.3477 48.5357 17.3376 48.5357 16.0918C48.5357 14.846 47.4083 13.8359 46.0177 13.8359H40.9818C39.5912 13.8359 38.4639 14.846 38.4639 16.0918C38.4639 17.3376 39.5912 18.3477 40.9818 18.3477Z" fill="url(#paint9_linear_374_1658)"/>
<path d="M83.5985 47.0929C83.3756 47.0684 79.6192 46.6805 75.6779 47.7761C75.6781 47.742 75.6791 44.8432 75.6791 44.8432C78.1927 44.0508 82.4492 42.2504 84.7217 38.6955C88.0076 33.5555 85.6636 27.0654 85.5622 26.7915C85.1582 25.7003 83.9027 25.0555 82.6473 25.2957C82.3324 25.3559 74.8979 26.8283 71.6119 31.9684C68.7373 36.4648 70.1712 41.9943 70.6432 43.4919V47.6738C70.6432 48.5927 70.5734 49.513 70.437 50.4192C66.6618 53.5887 65.8371 58.4577 65.6575 60.3751C64.4609 61.7105 63.0888 62.8995 61.5623 63.9246C60.4586 63.6395 59.2819 63.4647 58.0533 63.4647C52.9106 63.4647 48.6704 66.5185 46.9389 67.9766H40.0613C38.33 66.5185 34.0899 63.4647 28.9468 63.4647C27.7182 63.4647 26.5414 63.6395 25.4377 63.9246C23.9137 62.9012 22.5428 61.7134 21.3425 60.3748C21.1628 58.4573 20.3381 53.5885 16.563 50.4191C16.4267 49.5128 16.3568 48.5926 16.3568 47.6737V43.4918C16.829 41.9942 18.2628 36.4646 15.3881 31.9682C12.1022 26.8282 4.66767 25.3557 4.35276 25.2956C3.09697 25.0551 1.84186 25.7001 1.43781 26.7913C1.33642 27.0651 -1.00762 33.5552 2.2783 38.6954C4.55084 42.2503 8.80735 44.0506 11.3209 44.843C11.3209 44.843 11.3219 47.742 11.3221 47.7759C7.38085 46.6802 3.6244 47.0682 3.40148 47.0927C2.12756 47.2329 1.17511 48.2089 1.19055 49.3587C1.19441 49.6471 1.34196 56.4673 6.32029 60.3656C9.82108 63.1071 14.6 63.5343 17.2396 63.5343C17.4067 63.5343 17.5641 63.5325 17.7132 63.5295C18.5597 64.4422 19.4744 65.2974 20.4537 66.0899C18.3917 67.3545 17.1045 68.622 16.9991 68.7275C16.1428 69.5841 16.1428 70.8805 16.9991 71.7371C17.2138 71.952 22.335 77 28.9466 77C34.0896 77 38.3295 73.9465 40.061 72.4883H46.9392C48.6707 73.9465 52.9106 77 58.0536 77C64.6647 77 69.7864 71.9521 70.0011 71.7372C70.8574 70.8806 70.8574 69.5842 70.0011 68.7276C69.8959 68.6222 68.6087 67.3547 66.5465 66.0901C67.5256 65.2975 68.4405 64.4424 69.287 63.5297C69.4361 63.5327 69.5935 63.5345 69.7607 63.5345C72.4006 63.5345 77.1794 63.1071 80.6801 60.3658C85.6582 56.4673 85.8058 49.6473 85.8098 49.3588C85.8248 48.2091 84.8725 47.233 83.5985 47.0929ZM6.64829 36.453C5.42087 34.533 5.44589 32.1433 5.69835 30.4323C7.47603 31.1053 9.79489 32.2971 11.0181 34.2107C12.2457 36.1306 12.2205 38.5205 11.9682 40.2313C10.1905 39.5585 7.87151 38.3666 6.64829 36.453ZM9.63458 56.9687C7.77516 55.5126 6.92846 53.2463 6.54388 51.5553C8.46944 51.6718 11.0957 52.1207 12.9487 53.5719C14.8093 55.0288 15.6558 57.2972 16.0399 58.9886C14.1164 58.8739 11.4947 58.4256 9.63458 56.9687ZM28.9466 72.4883C26.4753 72.4883 24.1719 71.2794 22.6403 70.2326C24.4505 68.995 26.6888 67.9766 28.9468 67.9766C31.418 67.9766 33.7215 69.1853 35.2532 70.2323C33.7205 71.2799 31.4172 72.4883 28.9466 72.4883ZM58.0534 72.4883C55.5821 72.4883 53.2786 71.2794 51.7468 70.2324C53.2796 69.1847 55.5828 67.9764 58.0533 67.9764C60.3186 67.9764 62.5592 69.0013 64.3599 70.2323C62.8271 71.2799 60.524 72.4883 58.0534 72.4883ZM75.9819 34.2107C77.2093 32.2907 79.5228 31.1009 81.2976 30.4302C81.5491 32.1443 81.575 34.5396 80.3517 36.453C79.1243 38.3729 76.8108 39.5628 75.036 40.2336C74.7844 38.5194 74.7585 36.1241 75.9819 34.2107ZM77.3654 56.9689C75.5047 58.426 72.8827 58.8742 70.9603 58.9889C71.3445 57.2964 72.1911 55.0287 74.0513 53.5719C75.9109 52.1156 78.5311 51.6672 80.4531 51.552C80.0665 53.246 79.2187 55.5176 77.3654 56.9689Z" fill="url(#paint10_linear_374_1658)"/>
<path d="M83.5985 47.0929C83.3756 47.0684 79.6192 46.6805 75.6779 47.7761C75.6781 47.742 75.6791 44.8432 75.6791 44.8432C78.1927 44.0508 82.4492 42.2504 84.7217 38.6955C88.0076 33.5555 85.6636 27.0654 85.5622 26.7915C85.1582 25.7003 83.9027 25.0555 82.6473 25.2957C82.3324 25.3559 74.8979 26.8283 71.6119 31.9684C68.7373 36.4648 70.1712 41.9943 70.6432 43.4919V47.6738C70.6432 48.5927 70.5734 49.513 70.437 50.4192C66.6618 53.5887 65.8371 58.4577 65.6575 60.3751C64.4609 61.7105 63.0888 62.8995 61.5623 63.9246C60.4586 63.6395 59.2819 63.4647 58.0533 63.4647C52.9106 63.4647 48.6704 66.5185 46.9389 67.9766H40.0613C38.33 66.5185 34.0899 63.4647 28.9468 63.4647C27.7182 63.4647 26.5414 63.6395 25.4377 63.9246C23.9137 62.9012 22.5428 61.7134 21.3425 60.3748C21.1628 58.4573 20.3381 53.5885 16.563 50.4191C16.4267 49.5128 16.3568 48.5926 16.3568 47.6737V43.4918C16.829 41.9942 18.2628 36.4646 15.3881 31.9682C12.1022 26.8282 4.66767 25.3557 4.35276 25.2956C3.09697 25.0551 1.84186 25.7001 1.43781 26.7913C1.33642 27.0651 -1.00762 33.5552 2.2783 38.6954C4.55084 42.2503 8.80735 44.0506 11.3209 44.843C11.3209 44.843 11.3219 47.742 11.3221 47.7759C7.38085 46.6802 3.6244 47.0682 3.40148 47.0927C2.12756 47.2329 1.17511 48.2089 1.19055 49.3587C1.19441 49.6471 1.34196 56.4673 6.32029 60.3656C9.82108 63.1071 14.6 63.5343 17.2396 63.5343C17.4067 63.5343 17.5641 63.5325 17.7132 63.5295C18.5597 64.4422 19.4744 65.2974 20.4537 66.0899C18.3917 67.3545 17.1045 68.622 16.9991 68.7275C16.1428 69.5841 16.1428 70.8805 16.9991 71.7371C17.2138 71.952 22.335 77 28.9466 77C34.0896 77 38.3295 73.9465 40.061 72.4883H46.9392C48.6707 73.9465 52.9106 77 58.0536 77C64.6647 77 69.7864 71.9521 70.0011 71.7372C70.8574 70.8806 70.8574 69.5842 70.0011 68.7276C69.8959 68.6222 68.6087 67.3547 66.5465 66.0901C67.5256 65.2975 68.4405 64.4424 69.287 63.5297C69.4361 63.5327 69.5935 63.5345 69.7607 63.5345C72.4006 63.5345 77.1794 63.1071 80.6801 60.3658C85.6582 56.4673 85.8058 49.6473 85.8098 49.3588C85.8248 48.2091 84.8725 47.233 83.5985 47.0929ZM6.64829 36.453C5.42087 34.533 5.44589 32.1433 5.69835 30.4323C7.47603 31.1053 9.79489 32.2971 11.0181 34.2107C12.2457 36.1306 12.2205 38.5205 11.9682 40.2313C10.1905 39.5585 7.87151 38.3666 6.64829 36.453ZM9.63458 56.9687C7.77516 55.5126 6.92846 53.2463 6.54388 51.5553C8.46944 51.6718 11.0957 52.1207 12.9487 53.5719C14.8093 55.0288 15.6558 57.2972 16.0399 58.9886C14.1164 58.8739 11.4947 58.4256 9.63458 56.9687ZM28.9466 72.4883C26.4753 72.4883 24.1719 71.2794 22.6403 70.2326C24.4505 68.995 26.6888 67.9766 28.9468 67.9766C31.418 67.9766 33.7215 69.1853 35.2532 70.2323C33.7205 71.2799 31.4172 72.4883 28.9466 72.4883ZM58.0534 72.4883C55.5821 72.4883 53.2786 71.2794 51.7468 70.2324C53.2796 69.1847 55.5828 67.9764 58.0533 67.9764C60.3186 67.9764 62.5592 69.0013 64.3599 70.2323C62.8271 71.2799 60.524 72.4883 58.0534 72.4883ZM75.9819 34.2107C77.2093 32.2907 79.5228 31.1009 81.2976 30.4302C81.5491 32.1443 81.575 34.5396 80.3517 36.453C79.1243 38.3729 76.8108 39.5628 75.036 40.2336C74.7844 38.5194 74.7585 36.1241 75.9819 34.2107ZM77.3654 56.9689C75.5047 58.426 72.8827 58.8742 70.9603 58.9889C71.3445 57.2964 72.1911 55.0287 74.0513 53.5719C75.9109 52.1156 78.5311 51.6672 80.4531 51.552C80.0665 53.246 79.2187 55.5176 77.3654 56.9689Z" fill="url(#paint11_linear_374_1658)"/>
</g>
<defs>
<linearGradient id="paint0_linear_374_1658" x1="48.536" y1="74.3474" x2="48.536" y2="-1.21907" gradientUnits="userSpaceOnUse">
<stop stop-color="#A93AFF"/>
<stop offset="1" stop-color="#FF81FF"/>
</linearGradient>
<linearGradient id="paint1_linear_374_1658" x1="48.536" y1="54.4414" x2="48.536" y2="0" gradientUnits="userSpaceOnUse">
<stop stop-color="white"/>
<stop offset="1" stop-color="#8B8B8B"/>
</linearGradient>
<linearGradient id="paint2_linear_374_1658" x1="43.5" y1="74.3474" x2="43.5" y2="-1.21907" gradientUnits="userSpaceOnUse">
<stop stop-color="#A93AFF"/>
<stop offset="1" stop-color="#FF81FF"/>
</linearGradient>
<linearGradient id="paint3_linear_374_1658" x1="43.5" y1="27.3711" x2="43.5" y2="22.8594" gradientUnits="userSpaceOnUse">
<stop stop-color="white"/>
<stop offset="1" stop-color="#8B8B8B"/>
</linearGradient>
<linearGradient id="paint4_linear_374_1658" x1="43.5" y1="74.3474" x2="43.5" y2="-1.21907" gradientUnits="userSpaceOnUse">
<stop stop-color="#A93AFF"/>
<stop offset="1" stop-color="#FF81FF"/>
</linearGradient>
<linearGradient id="paint5_linear_374_1658" x1="43.5" y1="36.3945" x2="43.5" y2="31.8828" gradientUnits="userSpaceOnUse">
<stop stop-color="white"/>
<stop offset="1" stop-color="#8B8B8B"/>
</linearGradient>
<linearGradient id="paint6_linear_374_1658" x1="43.4998" y1="74.3474" x2="43.4998" y2="-1.21907" gradientUnits="userSpaceOnUse">
<stop stop-color="#A93AFF"/>
<stop offset="1" stop-color="#FF81FF"/>
</linearGradient>
<linearGradient id="paint7_linear_374_1658" x1="43.4998" y1="45.418" x2="43.4998" y2="40.9062" gradientUnits="userSpaceOnUse">
<stop stop-color="white"/>
<stop offset="1" stop-color="#8B8B8B"/>
</linearGradient>
<linearGradient id="paint8_linear_374_1658" x1="43.4998" y1="74.3474" x2="43.4998" y2="-1.21906" gradientUnits="userSpaceOnUse">
<stop stop-color="#A93AFF"/>
<stop offset="1" stop-color="#FF81FF"/>
</linearGradient>
<linearGradient id="paint9_linear_374_1658" x1="43.4998" y1="18.3477" x2="43.4998" y2="13.8359" gradientUnits="userSpaceOnUse">
<stop stop-color="white"/>
<stop offset="1" stop-color="#8B8B8B"/>
</linearGradient>
<linearGradient id="paint10_linear_374_1658" x1="43.5" y1="74.3474" x2="43.5" y2="-1.21905" gradientUnits="userSpaceOnUse">
<stop stop-color="#A93AFF"/>
<stop offset="1" stop-color="#FF81FF"/>
</linearGradient>
<linearGradient id="paint11_linear_374_1658" x1="43.5" y1="77" x2="43.5" y2="25.2454" gradientUnits="userSpaceOnUse">
<stop stop-color="white"/>
<stop offset="1" stop-color="#8B8B8B"/>
</linearGradient>
<clipPath id="clip0_374_1658">
<rect width="85.9461" height="77" fill="white" transform="translate(0.526855)"/>
</clipPath>
</defs>
</svg>
