<svg width="78" height="78" viewBox="0 0 78 78" fill="none" xmlns="http://www.w3.org/2000/svg">
<g clip-path="url(#clip0_374_1671)">
<path d="M46.0702 27.2223C42.9426 30.159 38.8488 33.4997 34.3745 36.7085C29.9 39.9173 25.4228 42.7232 21.6379 44.7436L16.519 37.6057C19.6468 34.6688 23.7404 31.3282 28.2149 28.1194C32.6894 24.9106 37.1666 22.1047 40.9514 20.0844L46.0702 27.2223Z" fill="#F24646"/>
<path d="M46.0702 27.2223C42.9426 30.159 38.8488 33.4997 34.3745 36.7085C29.9 39.9173 25.4228 42.7232 21.6379 44.7436L16.519 37.6057C19.6468 34.6688 23.7404 31.3282 28.2149 28.1194C32.6894 24.9106 37.1666 22.1047 40.9514 20.0844L46.0702 27.2223Z" fill="url(#paint0_linear_374_1671)"/>
<path d="M18.3368 40.1413L16.5186 37.6059C19.6463 34.669 23.7399 31.3284 28.2144 28.1196C32.6889 24.9108 37.1661 22.1049 40.9509 20.0845L42.7692 22.62C38.9843 24.6404 34.5071 27.4462 30.0326 30.655C25.5582 33.8638 21.4645 37.2044 18.3368 40.1413Z" fill="#DD3C3C"/>
<path d="M18.3368 40.1413L16.5186 37.6059C19.6463 34.669 23.7399 31.3284 28.2144 28.1196C32.6889 24.9108 37.1661 22.1049 40.9509 20.0845L42.7692 22.62C38.9843 24.6404 34.5071 27.4462 30.0326 30.655C25.5582 33.8638 21.4645 37.2044 18.3368 40.1413Z" fill="url(#paint1_linear_374_1671)"/>
<path d="M3.82963 41.7674L1.07724 43.7412C-0.143947 44.617 -0.359513 46.4264 0.598422 47.762L6.91153 56.5651C7.86947 57.9009 9.65219 58.277 10.8735 57.4012L13.6259 55.4273L3.82963 41.7674Z" fill="#FF5050"/>
<path d="M3.82963 41.7674L1.07724 43.7412C-0.143947 44.617 -0.359513 46.4264 0.598422 47.762L6.91153 56.5651C7.86947 57.9009 9.65219 58.277 10.8735 57.4012L13.6259 55.4273L3.82963 41.7674Z" fill="url(#paint2_linear_374_1671)"/>
<path d="M9.39796 54.7821L3.08485 45.9789C2.12691 44.6433 2.34248 42.834 3.56382 41.9581L1.07727 43.7412C-0.143918 44.617 -0.359484 46.4264 0.598299 47.762L6.91141 56.5651C7.86935 57.9009 9.65222 58.277 10.8734 57.4012L13.3598 55.6182C12.1386 56.494 10.3557 56.1177 9.39796 54.7821Z" fill="#F24646"/>
<path d="M9.39796 54.7821L3.08485 45.9789C2.12691 44.6433 2.34248 42.834 3.56382 41.9581L1.07727 43.7412C-0.143918 44.617 -0.359484 46.4264 0.598299 47.762L6.91141 56.5651C7.86935 57.9009 9.65222 58.277 10.8734 57.4012L13.3598 55.6182C12.1386 56.494 10.3557 56.1177 9.39796 54.7821Z" fill="url(#paint3_linear_374_1671)"/>
<path d="M48.9629 9.40048L51.7153 7.42656C52.9365 6.55074 54.7193 6.92703 55.6773 8.26262L61.9904 17.0658C62.9483 18.4015 62.7328 20.2108 61.5116 21.0866L58.7592 23.0605L48.9629 9.40048Z" fill="#FF5050"/>
<path d="M48.9629 9.40048L51.7153 7.42656C52.9365 6.55074 54.7193 6.92703 55.6773 8.26262L61.9904 17.0658C62.9483 18.4015 62.7328 20.2108 61.5116 21.0866L58.7592 23.0605L48.9629 9.40048Z" fill="url(#paint4_linear_374_1671)"/>
<path d="M51.7633 7.39612C51.7476 7.40693 51.7308 7.41547 51.7153 7.42674L48.9629 9.40065L58.759 23.0607L61.5114 21.0868C61.527 21.0756 61.5405 21.0625 61.5557 21.0511L51.7633 7.39612Z" fill="#F24646"/>
<path d="M51.7633 7.39612C51.7476 7.40693 51.7308 7.41547 51.7153 7.42674L48.9629 9.40065L58.759 23.0607L61.5114 21.0868C61.527 21.0756 61.5405 21.0625 61.5557 21.0511L51.7633 7.39612Z" fill="url(#paint5_linear_374_1671)"/>
<path d="M60.7088 28.379L52.9479 33.9446C52.1309 34.5305 50.9829 34.3414 50.397 33.5244L36.3699 13.9649C35.784 13.1479 35.9731 11.9998 36.7901 11.4139L44.5509 5.84832C45.3679 5.26241 46.516 5.45147 47.1019 6.26849L61.1288 25.828C61.7149 26.645 61.5258 27.7929 60.7088 28.379Z" fill="#FF5050"/>
<path d="M60.7088 28.379L52.9479 33.9446C52.1309 34.5305 50.9829 34.3414 50.397 33.5244L36.3699 13.9649C35.784 13.1479 35.9731 11.9998 36.7901 11.4139L44.5509 5.84832C45.3679 5.26241 46.516 5.45147 47.1019 6.26849L61.1288 25.828C61.7149 26.645 61.5258 27.7929 60.7088 28.379Z" fill="url(#paint6_linear_374_1671)"/>
<path d="M52.9118 31.6589L38.9435 12.1812C38.3415 11.3417 38.5357 10.1621 39.3753 9.56L36.8312 11.3845C35.9916 11.9865 35.7972 13.1661 36.3994 14.0057L50.3676 33.4834C50.9697 34.323 52.1493 34.5172 52.9889 33.9151L55.533 32.0907C54.6934 32.6927 53.5138 32.4985 52.9118 31.6589Z" fill="#F24646"/>
<path d="M52.9118 31.6589L38.9435 12.1812C38.3415 11.3417 38.5357 10.1621 39.3753 9.56L36.8312 11.3845C35.9916 11.9865 35.7972 13.1661 36.3994 14.0057L50.3676 33.4834C50.9697 34.323 52.1493 34.5172 52.9889 33.9151L55.533 32.0907C54.6934 32.6927 53.5138 32.4985 52.9118 31.6589Z" fill="url(#paint7_linear_374_1671)"/>
<path d="M25.7985 53.4142L18.0376 58.9798C17.2206 59.5657 16.0726 59.3766 15.4866 58.5596L1.45978 39.0001C0.873862 38.1831 1.06292 37.035 1.87994 36.4491L9.64077 30.8835C10.4578 30.2976 11.6058 30.4867 12.1918 31.3037L26.2186 50.8632C26.8047 51.6804 26.6156 52.8283 25.7985 53.4142Z" fill="#FF5050"/>
<path d="M25.7985 53.4142L18.0376 58.9798C17.2206 59.5657 16.0726 59.3766 15.4866 58.5596L1.45978 39.0001C0.873862 38.1831 1.06292 37.035 1.87994 36.4491L9.64077 30.8835C10.4578 30.2976 11.6058 30.4867 12.1918 31.3037L26.2186 50.8632C26.8047 51.6804 26.6156 52.8283 25.7985 53.4142Z" fill="url(#paint8_linear_374_1671)"/>
<path d="M17.99 56.7025L4.02182 37.2248C3.41975 36.3852 3.61399 35.2056 4.45356 34.6036L1.921 36.4198C1.08143 37.0219 0.887044 38.2015 1.48926 39.041L15.4575 58.5188C16.0595 59.3583 17.2391 59.5527 18.0787 58.9505L20.6113 57.1343C19.7717 57.7363 18.5921 57.5421 17.99 56.7025Z" fill="#F24646"/>
<path d="M17.99 56.7025L4.02182 37.2248C3.41975 36.3852 3.61399 35.2056 4.45356 34.6036L1.921 36.4198C1.08143 37.0219 0.887044 38.2015 1.48926 39.041L15.4575 58.5188C16.0595 59.3583 17.2391 59.5527 18.0787 58.9505L20.6113 57.1343C19.7717 57.7363 18.5921 57.5421 17.99 56.7025Z" fill="url(#paint9_linear_374_1671)"/>
<path d="M59.1437 54.2376C54.8906 53.6738 49.6171 53.3447 44.1109 53.3447C38.6048 53.3447 33.3312 53.6738 29.0781 54.2376V63.0213C33.3314 63.5851 38.6048 63.9142 44.1109 63.9142C49.6171 63.9142 54.8906 63.5851 59.1437 63.0213V54.2376Z" fill="#C3C8D1"/>
<path d="M29.0781 59.9013V63.0213C33.3314 63.5851 38.6048 63.9142 44.1109 63.9142C49.6171 63.9142 54.8906 63.5851 59.1437 63.0213V59.9013C54.8906 60.4651 49.6171 60.7942 44.1109 60.7942C38.6048 60.7942 33.3314 60.4651 29.0781 59.9013Z" fill="#B4B8BF"/>
<path d="M16.3412 50.2247H12.9541C11.4512 50.2247 10.2217 51.5695 10.2217 53.2131V64.0459C10.2217 65.6896 11.4512 67.0343 12.9541 67.0343H16.3412V50.2247Z" fill="#E4EAF8"/>
<path d="M13.2813 64.0459V53.2131C13.2813 51.5695 14.5109 50.2247 16.0138 50.2247H12.9541C11.4512 50.2247 10.2217 51.5695 10.2217 53.2131V64.0459C10.2217 65.6896 11.4512 67.0343 12.9541 67.0343H16.0138C14.5109 67.0343 13.2813 65.6896 13.2813 64.0459Z" fill="#D8DCE5"/>
<path d="M71.8804 50.2247H75.2674C76.7703 50.2247 77.9999 51.5695 77.9999 53.2131V64.0459C77.9999 65.6896 76.7703 67.0343 75.2674 67.0343H71.8804V50.2247Z" fill="#E4EAF8"/>
<path d="M75.3242 50.2278C75.3052 50.2274 75.2866 50.2246 75.2674 50.2246H71.8804V67.0342H75.2674C75.2866 67.0342 75.3052 67.0314 75.3242 67.031V50.2278Z" fill="#D8DCE5"/>
<path d="M70.3657 72.4923H60.8154C59.81 72.4923 58.9873 71.6697 58.9873 70.6642V46.5948C58.9873 45.5894 59.81 44.7667 60.8154 44.7667H70.3657C71.3712 44.7667 72.1938 45.5894 72.1938 46.5948V70.664C72.1938 71.6697 71.3712 72.4923 70.3657 72.4923Z" fill="#E4EAF8"/>
<path d="M62.1176 70.6138V46.6453C62.1176 45.6121 62.963 44.7669 63.996 44.7669H60.8652C59.832 44.7669 58.9868 45.6123 58.9868 46.6453V70.614C58.9868 71.6471 59.8322 72.4923 60.8652 72.4923H63.996C62.963 72.4923 62.1176 71.647 62.1176 70.6138Z" fill="#D8DCE5"/>
<path d="M27.4062 72.4923H17.856C16.8505 72.4923 16.0278 71.6697 16.0278 70.6642V46.5948C16.0278 45.5894 16.8505 44.7667 17.856 44.7667H27.4062C28.4117 44.7667 29.2343 45.5894 29.2343 46.5948V70.664C29.2343 71.6697 28.4117 72.4923 27.4062 72.4923Z" fill="#E4EAF8"/>
<path d="M19.1443 70.6138V46.6453C19.1443 45.6121 19.9897 44.7669 21.0227 44.7669H17.9062C16.873 44.7669 16.0278 45.6123 16.0278 46.6453V70.614C16.0278 71.6471 16.8732 72.4923 17.9062 72.4923H21.0227C19.9897 72.4923 19.1443 71.647 19.1443 70.6138Z" fill="#D8DCE5"/>
</g>
<defs>
<linearGradient id="paint0_linear_374_1671" x1="31.2946" y1="44.7436" x2="31.2946" y2="20.0844" gradientUnits="userSpaceOnUse">
<stop stop-color="white"/>
<stop offset="1" stop-color="#8B8B8B"/>
</linearGradient>
<linearGradient id="paint1_linear_374_1671" x1="29.6439" y1="40.1413" x2="29.6439" y2="20.0845" gradientUnits="userSpaceOnUse">
<stop stop-color="white"/>
<stop offset="1" stop-color="#8B8B8B"/>
</linearGradient>
<linearGradient id="paint2_linear_374_1671" x1="6.81296" y1="57.8741" x2="6.81296" y2="41.7674" gradientUnits="userSpaceOnUse">
<stop stop-color="white"/>
<stop offset="1" stop-color="#8B8B8B"/>
</linearGradient>
<linearGradient id="paint3_linear_374_1671" x1="6.6799" y1="57.8741" x2="6.6799" y2="41.9581" gradientUnits="userSpaceOnUse">
<stop stop-color="white"/>
<stop offset="1" stop-color="#8B8B8B"/>
</linearGradient>
<linearGradient id="paint4_linear_374_1671" x1="55.7759" y1="23.0605" x2="55.7759" y2="6.95374" gradientUnits="userSpaceOnUse">
<stop stop-color="white"/>
<stop offset="1" stop-color="#8B8B8B"/>
</linearGradient>
<linearGradient id="paint5_linear_374_1671" x1="55.2593" y1="23.0607" x2="55.2593" y2="7.39612" gradientUnits="userSpaceOnUse">
<stop stop-color="white"/>
<stop offset="1" stop-color="#8B8B8B"/>
</linearGradient>
<linearGradient id="paint6_linear_374_1671" x1="48.7494" y1="34.2852" x2="48.7494" y2="5.50769" gradientUnits="userSpaceOnUse">
<stop stop-color="white"/>
<stop offset="1" stop-color="#8B8B8B"/>
</linearGradient>
<linearGradient id="paint7_linear_374_1671" x1="45.7912" y1="34.2652" x2="45.7912" y2="9.56" gradientUnits="userSpaceOnUse">
<stop stop-color="white"/>
<stop offset="1" stop-color="#8B8B8B"/>
</linearGradient>
<linearGradient id="paint8_linear_374_1671" x1="13.8393" y1="59.3204" x2="13.8393" y2="30.5429" gradientUnits="userSpaceOnUse">
<stop stop-color="white"/>
<stop offset="1" stop-color="#8B8B8B"/>
</linearGradient>
<linearGradient id="paint9_linear_374_1671" x1="10.8752" y1="59.3006" x2="10.8752" y2="34.6036" gradientUnits="userSpaceOnUse">
<stop stop-color="white"/>
<stop offset="1" stop-color="#8B8B8B"/>
</linearGradient>
<clipPath id="clip0_374_1671">
<rect width="78" height="78" fill="white"/>
</clipPath>
</defs>
</svg>
