<svg width="60" height="60" viewBox="0 0 60 60" fill="none" xmlns="http://www.w3.org/2000/svg">
<path d="M22.3858 52.2055C21.9072 53.6411 20.5638 54.6094 19.0506 54.6094H15.8203C14.8495 54.6094 14.0625 55.3964 14.0625 56.3672C14.0625 57.338 14.8495 58.125 15.8203 58.125H44.0625C45.0333 58.125 45.8203 57.338 45.8203 56.3672C45.8203 55.3964 45.0333 54.6094 44.0625 54.6094H40.8323C39.319 54.6094 37.9756 53.6411 37.497 52.2055C36.7382 49.929 38.4326 47.5781 40.8323 47.5781H56C58.2091 47.5781 60 45.7873 60 43.5781V5.875C60 3.66586 58.2091 1.875 56 1.875H4C1.79086 1.875 0 3.66586 0 5.875V43.5781C0 45.7873 1.79086 47.5781 4 47.5781H19.0506C21.4502 47.5781 23.1446 49.929 22.3858 52.2055ZM33.1215 50.1972C33.8451 52.3678 32.2295 54.6094 29.9414 54.6094C27.6534 54.6094 26.0377 52.3678 26.7613 50.1972L26.9047 49.7669C27.3404 48.4598 28.5636 47.5781 29.9414 47.5781C31.3192 47.5781 32.5424 48.4598 32.9781 49.7669L33.1215 50.1972ZM52.4844 5.39062C54.6935 5.39062 56.4844 7.18149 56.4844 9.39062V33.0312C56.4844 35.2404 54.6935 37.0312 52.4844 37.0312H7.51562C5.30649 37.0312 3.51562 35.2404 3.51562 33.0312V9.39063C3.51562 7.18149 5.30649 5.39062 7.51562 5.39062H52.4844ZM3.51562 42.3047C3.51562 41.3339 4.30262 40.5469 5.27344 40.5469H54.7266C55.6974 40.5469 56.4844 41.3339 56.4844 42.3047C56.4844 43.2755 55.6974 44.0625 54.7266 44.0625H5.27344C4.30262 44.0625 3.51562 43.2755 3.51562 42.3047Z" fill="url(#paint0_linear_374_1638)"/>
<path d="M28.125 30C28.125 26.4941 26.4053 23.3826 23.7652 21.4639C23.2365 21.0796 23.1193 20.3066 23.4758 19.7588C24.1922 18.6581 24.6094 17.3459 24.6094 15.9375C24.6094 12.0602 21.4554 8.90625 17.5781 8.90625C13.7009 8.90625 10.5469 12.0602 10.5469 15.9375C10.5469 17.3459 10.964 18.6581 11.6804 19.7588C12.0369 20.3066 11.9198 21.0796 11.3911 21.4639C8.75099 23.3826 7.03125 26.4941 7.03125 30V32.5156C7.03125 33.0679 7.47897 33.5156 8.03125 33.5156H27.125C27.6773 33.5156 28.125 33.0679 28.125 32.5156V30ZM14.0625 15.9375C14.0625 13.9989 15.6395 12.4219 17.5781 12.4219C19.5168 12.4219 21.0938 13.9989 21.0938 15.9375C21.0938 17.8761 19.5168 19.4531 17.5781 19.4531C15.6395 19.4531 14.0625 17.8761 14.0625 15.9375ZM11.5469 30C10.9946 30 10.5394 29.5497 10.6173 29.003C11.1029 25.5962 14.0393 22.9688 17.5781 22.9688C21.117 22.9688 24.0533 25.5962 24.5389 29.003C24.6169 29.5497 24.1617 30 23.6094 30H11.5469Z" fill="url(#paint1_linear_374_1638)"/>
<path d="M31.6406 28.2422C31.6406 27.2714 32.4276 26.4844 33.3984 26.4844H51.2109C52.1817 26.4844 52.9688 27.2714 52.9688 28.2422C52.9688 29.213 52.1818 30 51.2109 30H33.3984C32.4276 30 31.6406 29.213 31.6406 28.2422Z" fill="url(#paint2_linear_374_1638)"/>
<path d="M31.6406 21.2109C31.6406 20.2401 32.4276 19.4531 33.3984 19.4531H51.2109C52.1817 19.4531 52.9688 20.2401 52.9688 21.2109C52.9688 22.1818 52.1818 22.9688 51.2109 22.9688H33.3984C32.4276 22.9688 31.6406 22.1818 31.6406 21.2109Z" fill="url(#paint3_linear_374_1638)"/>
<path d="M35.2734 14.1797C35.2734 13.2089 36.0604 12.4219 37.0312 12.4219H47.6953C48.6661 12.4219 49.4531 13.2089 49.4531 14.1797C49.4531 15.1505 48.6661 15.9375 47.6953 15.9375H37.0312C36.0604 15.9375 35.2734 15.1505 35.2734 14.1797Z" fill="url(#paint4_linear_374_1638)"/>
<defs>
<linearGradient id="paint0_linear_374_1638" x1="30" y1="58.125" x2="30" y2="1.875" gradientUnits="userSpaceOnUse">
<stop stop-color="white"/>
<stop offset="1" stop-color="#8B8B8B"/>
</linearGradient>
<linearGradient id="paint1_linear_374_1638" x1="17.5781" y1="33.5156" x2="17.5781" y2="8.90625" gradientUnits="userSpaceOnUse">
<stop stop-color="white"/>
<stop offset="1" stop-color="#8B8B8B"/>
</linearGradient>
<linearGradient id="paint2_linear_374_1638" x1="42.3047" y1="30" x2="42.3047" y2="26.4844" gradientUnits="userSpaceOnUse">
<stop stop-color="white"/>
<stop offset="1" stop-color="#8B8B8B"/>
</linearGradient>
<linearGradient id="paint3_linear_374_1638" x1="42.3047" y1="22.9688" x2="42.3047" y2="19.4531" gradientUnits="userSpaceOnUse">
<stop stop-color="white"/>
<stop offset="1" stop-color="#8B8B8B"/>
</linearGradient>
<linearGradient id="paint4_linear_374_1638" x1="42.3633" y1="15.9375" x2="42.3633" y2="12.4219" gradientUnits="userSpaceOnUse">
<stop stop-color="white"/>
<stop offset="1" stop-color="#8B8B8B"/>
</linearGradient>
</defs>
</svg>
