<svg width="85" height="85" viewBox="0 0 85 85" fill="none" xmlns="http://www.w3.org/2000/svg">
<rect width="85" height="85" rx="11" fill="url(#paint0_linear_374_7418)" fill-opacity="0.06"/>
<rect x="1" y="1" width="83" height="83" rx="10" stroke="#EAFFE5" stroke-opacity="0.14" stroke-width="2"/>
<path d="M63.3266 59.4904H67.7112C67.7112 63.123 64.767 66.0673 61.1343 66.0673H23.865C22.0487 66.0673 20.4045 65.3307 19.214 64.1413C18.0247 62.951 17.2881 61.3067 17.2881 59.4904H21.6727H37.567V61.6827H47.4323V59.4904H63.3266V59.4904Z" fill="white"/>
<path d="M65.519 29.7298V56.5855C65.519 57.9656 64.5916 59.1286 63.3266 59.486V59.4904H47.4324V61.6827H37.5671V59.4904H21.6728V59.4871C20.4079 59.1287 19.4805 57.9656 19.4805 56.5855V29.7298C19.4805 28.0647 20.8298 26.7153 22.4949 26.7153H34.2785V30.9903H23.8651V55.1057H61.1344C61.1344 52.9011 61.1344 34.2054 61.1344 30.9903H55.3577H50.721V26.7153H56.7399H62.5046C64.1695 26.7153 65.519 28.0647 65.519 29.7298Z" fill="#414141"/>
<path d="M62.5044 18.3846C63.8669 18.3846 64.9707 19.4884 64.9707 20.851C64.9707 22.2135 63.8669 23.3173 62.5044 23.3173C61.1419 23.3173 60.0381 22.2135 60.0381 20.851C60.0381 19.4884 61.1418 18.3846 62.5044 18.3846Z" fill="white"/>
<path d="M23.8652 51.8173H61.1345V55.1057H23.8652V51.8173Z" fill="#414141"/>
<path d="M48.5286 30.9903V30.4423H36.471V30.9903C33.8425 30.9903 26.8853 30.9903 23.8652 30.9903V51.8173H61.1345C61.1345 49.3527 61.1345 34.0466 61.1345 30.9903C58.1923 30.9903 50.6421 30.9903 48.5286 30.9903Z" fill="white"/>
<path d="M57.0242 19.4807C57.4783 19.4807 57.8463 19.1127 57.8463 18.6586C57.8463 18.2046 57.4783 17.8365 57.0242 17.8365C56.5702 17.8365 56.2021 18.2046 56.2021 18.6586C56.2021 19.1127 56.5702 19.4807 57.0242 19.4807Z" fill="#9C9C9C"/>
<path d="M55.1053 36.526V39.7048C55.1053 40.3406 54.5902 40.8558 53.9544 40.8558H52.9131V35.375H53.9544C54.5901 35.375 55.1053 35.8902 55.1053 36.526Z" fill="white"/>
<path d="M54.284 23.8653C54.738 23.8653 55.1061 23.4972 55.1061 23.0432C55.1061 22.5892 54.738 22.2211 54.284 22.2211C53.83 22.2211 53.4619 22.5892 53.4619 23.0432C53.4619 23.4972 53.83 23.8653 54.284 23.8653Z" fill="#9C9C9C"/>
<path d="M47.4326 40.3077V34.292C47.4326 33.6836 47.9215 33.1904 48.5288 33.1827H48.543H50.7211H51.8041C52.4168 33.1827 52.9134 33.6792 52.9134 34.292V35.375V40.8557V41.3907C52.9134 42.0034 52.4168 42.5 51.8041 42.5H50.7211H48.543C47.9292 42.5 47.4326 42.0034 47.4326 41.3907V40.3077Z" fill="#414141"/>
<path d="M50.7206 30.9903V33.1827H48.5426C48.5382 33.1827 48.5327 33.1827 48.5283 33.1827V30.4422V26.6057C48.5283 24.9407 47.8531 23.4334 46.7625 22.3428C45.6716 21.2521 44.1644 20.5768 42.4995 20.5768C39.1694 20.5768 36.4707 23.2756 36.4707 26.6056V30.4422V33.1826C36.4663 33.1826 36.4619 33.1826 36.4575 33.1826H34.2783V30.9902V26.7152V26.6056C34.2783 22.0653 37.9592 18.3845 42.4995 18.3845C44.7696 18.3845 46.8249 19.3052 48.3124 20.7927C49.7999 22.2802 50.7207 24.3355 50.7207 26.6056V26.7152L50.7206 30.9903Z" fill="white"/>
<path d="M36.4707 26.6057H48.5283V30.4422H36.4707V26.6057Z" fill="#414141"/>
<path d="M37.5677 40.3077V41.3907C37.5677 42.0034 37.0711 42.5 36.4584 42.5H33.1973C32.5835 42.5 32.0869 42.0034 32.0869 41.3907V40.8557V35.375V34.292C32.0869 33.6792 32.5835 33.1827 33.1973 33.1827H34.2792H36.4583H36.4715C37.0787 33.1903 37.5677 33.6836 37.5677 34.292V40.3077Z" fill="#414141"/>
<path d="M32.909 20.5768C33.363 20.5768 33.7311 20.2088 33.7311 19.7548C33.7311 19.3007 33.363 18.9327 32.909 18.9327C32.455 18.9327 32.0869 19.3007 32.0869 19.7548C32.0869 20.2088 32.455 20.5768 32.909 20.5768Z" fill="#9C9C9C"/>
<path d="M32.0868 35.375V40.8558H31.0455C30.4097 40.8558 29.8945 40.3406 29.8945 39.7048V36.526C29.8945 35.8902 30.4097 35.375 31.0455 35.375H32.0868Z" fill="white"/>
<path d="M25.5095 20.5769C26.4171 20.5769 27.1537 21.3135 27.1537 22.2211C27.1537 23.1287 26.4171 23.8654 25.5095 23.8654C24.6018 23.8654 23.8652 23.1288 23.8652 22.2211C23.8652 21.3135 24.6018 20.5769 25.5095 20.5769Z" fill="white"/>
<path d="M20.3026 24.9616C20.7567 24.9616 21.1248 24.5935 21.1248 24.1394C21.1248 23.6854 20.7567 23.3173 20.3026 23.3173C19.8486 23.3173 19.4805 23.6854 19.4805 24.1394C19.4805 24.5935 19.8486 24.9616 20.3026 24.9616Z" fill="#9C9C9C"/>
<path d="M61.1345 66.6154H23.8652C21.9627 66.6154 20.1734 65.8744 18.8269 64.529C17.4811 63.1823 16.7402 61.3927 16.7402 59.4904C16.7402 59.1876 16.9855 58.9423 17.2883 58.9423H37.5672C37.8698 58.9423 38.1153 59.1876 38.1153 59.4904V61.1345H46.8845V59.4904C46.8845 59.1876 47.1298 58.9423 47.4325 58.9423H67.7113C68.014 58.9423 68.2594 59.1876 68.2594 59.4904C68.2595 63.4191 65.0633 66.6154 61.1345 66.6154ZM17.8609 60.0384C17.9865 61.4416 18.5936 62.7446 19.6021 63.7539C20.7411 64.8921 22.2553 65.5191 23.8652 65.5191H61.1344C64.2741 65.5191 66.8608 63.107 67.1386 60.0384H47.9807V61.6825C47.9807 61.9853 47.7353 62.2306 47.4326 62.2306H37.5672C37.2644 62.2306 37.0192 61.9853 37.0192 61.6825V60.0384L17.8609 60.0384Z" fill="#9C9C9C"/>
<path d="M61.1347 55.6538H23.8654C23.5627 55.6538 23.3174 55.4085 23.3174 55.1057V30.9903C23.3174 30.6876 23.5627 30.4423 23.8654 30.4423H34.2789C34.5816 30.4423 34.827 30.6877 34.827 30.9903C34.827 31.2929 34.5816 31.5384 34.2789 31.5384H24.4136V54.5576H60.5866V31.5384H50.7213C50.4185 31.5384 50.1732 31.293 50.1732 30.9904C50.1732 30.6878 50.4185 30.4423 50.7213 30.4423H61.1347C61.4374 30.4423 61.6827 30.6878 61.6827 30.9904V55.1057C61.6827 55.4085 61.4374 55.6538 61.1347 55.6538Z" fill="#9C9C9C"/>
<path d="M63.3263 60.0342C63.0872 60.0342 62.8674 59.8766 62.7992 59.635C62.7169 59.3437 62.8864 59.0407 63.1777 58.9585C64.2335 58.6604 64.971 57.6844 64.971 56.5856V29.7298C64.971 28.3698 63.8645 27.2635 62.5047 27.2635H50.7209C50.4182 27.2635 50.1729 27.018 50.1729 26.7154C50.1729 26.4128 50.4182 26.1674 50.7209 26.1674H62.5046C64.4689 26.1674 66.0671 27.7656 66.0671 29.7299V56.5856C66.0671 58.1729 65.0014 59.5825 63.4757 60.0135C63.4257 60.0275 63.3756 60.0342 63.3263 60.0342Z" fill="#9C9C9C"/>
<path d="M21.6732 60.0352C21.6237 60.0352 21.5736 60.0285 21.5236 60.0144C19.998 59.5821 18.9326 58.1722 18.9326 56.5855V29.7297C18.9326 27.7654 20.5307 26.1672 22.4951 26.1672H34.2787C34.5814 26.1672 34.8268 26.4127 34.8268 26.7153C34.8268 27.0179 34.5814 27.2633 34.2787 27.2633H22.4951C21.1351 27.2633 20.0287 28.3697 20.0287 29.7297V56.5854C20.0287 57.6841 20.7664 58.6604 21.8222 58.9596C22.1135 59.0421 22.2827 59.3451 22.2002 59.6364C22.132 59.8777 21.9123 60.0352 21.6732 60.0352Z" fill="#9C9C9C"/>
<path d="M36.4577 43.048H33.1966C32.2821 43.048 31.5381 42.3045 31.5381 41.3906V40.8557C31.5381 40.553 31.7834 40.3076 32.0861 40.3076C32.3888 40.3076 32.6342 40.553 32.6342 40.8557V41.3906C32.6342 41.7001 32.8864 41.9519 33.1965 41.9519H36.4576C36.7671 41.9519 37.0188 41.7001 37.0188 41.3906V34.292C37.0188 33.9864 36.7699 33.7346 36.4637 33.7307L36.4576 33.7308H33.1965C32.8864 33.7308 32.6342 33.9826 32.6342 34.292V35.375C32.6342 35.6777 32.3887 35.923 32.0861 35.923C31.7833 35.923 31.5381 35.6776 31.5381 35.375V34.292C31.5381 33.3781 32.282 32.6346 33.1966 32.6346H36.4708C37.3805 32.646 38.115 33.3895 38.115 34.292V41.3907C38.1151 42.3046 37.3715 43.048 36.4577 43.048Z" fill="#9C9C9C"/>
<path d="M51.8044 43.048H48.5433C47.6288 43.048 46.8848 42.3045 46.8848 41.3906V34.292C46.8848 33.3895 47.6192 32.646 48.522 32.6346H48.5433H51.8044C52.7183 32.6346 53.4618 33.3781 53.4618 34.292V35.375C53.4618 35.6777 53.2164 35.923 52.9138 35.923C52.611 35.923 52.3657 35.6776 52.3657 35.375V34.292C52.3657 33.9826 52.1139 33.7308 51.8045 33.7308H48.5291C48.23 33.7346 47.9811 33.9864 47.9811 34.292V41.3907C47.9811 41.7001 48.2333 41.9519 48.5435 41.9519H51.8046C52.114 41.9519 52.3658 41.7001 52.3658 41.3907V40.8558C52.3658 40.5531 52.6111 40.3077 52.9139 40.3077C53.2165 40.3077 53.4619 40.5531 53.4619 40.8558V41.3907C53.4617 42.3046 52.7182 43.048 51.8044 43.048Z" fill="#9C9C9C"/>
<path d="M53.9546 41.4038H52.9133C52.6105 41.4038 52.3652 41.1584 52.3652 40.8557V35.375C52.3652 35.0723 52.6105 34.8269 52.9133 34.8269H53.9546C54.8914 34.8269 55.6536 35.5891 55.6536 36.5259V39.7048C55.6536 40.6416 54.8914 41.4038 53.9546 41.4038ZM53.4613 40.3077H53.9546C54.2869 40.3077 54.5575 40.0373 54.5575 39.7048V36.5259C54.5575 36.1935 54.2869 35.9231 53.9546 35.9231H53.4613V40.3077Z" fill="#9C9C9C"/>
<path d="M32.086 41.4038H31.0447C30.1079 41.4038 29.3457 40.6416 29.3457 39.7048V36.5259C29.3457 35.5891 30.1079 34.8269 31.0447 34.8269H32.086C32.3887 34.8269 32.6341 35.0724 32.6341 35.375V40.8557C32.6342 41.1584 32.3887 41.4038 32.086 41.4038ZM31.0447 35.923C30.7122 35.923 30.4418 36.1934 30.4418 36.5259V39.7047C30.4418 40.0372 30.7122 40.3076 31.0447 40.3076H31.538V35.9229L31.0447 35.923Z" fill="#9C9C9C"/>
<path d="M48.5285 33.7308C48.2258 33.7308 47.9805 33.4854 47.9805 33.1827V26.6058C47.9805 25.142 47.4104 23.7657 46.3751 22.7304C45.3397 21.6952 43.9634 21.125 42.4997 21.125C39.4777 21.125 37.019 23.5837 37.019 26.6058V33.1827C37.019 33.4854 36.7736 33.7308 36.4709 33.7308C36.1682 33.7308 35.9229 33.4854 35.9229 33.1827V26.6058C35.9229 22.9793 38.8732 20.0288 42.4998 20.0288C44.2563 20.0288 45.908 20.713 47.1504 21.9552C48.3927 23.1975 49.0767 24.8492 49.0767 26.6058V33.1827C49.0767 33.4854 48.8312 33.7308 48.5285 33.7308Z" fill="#9C9C9C"/>
<path d="M50.7208 33.7307C50.4181 33.7307 50.1728 33.4853 50.1728 33.1827V26.6057C50.1728 24.5566 49.3745 22.6299 47.925 21.1804C46.4755 19.7309 44.5487 18.9327 42.4996 18.9327C38.2686 18.9327 34.8266 22.3748 34.8266 26.6057V33.1827C34.8266 33.4853 34.5812 33.7307 34.2785 33.7307C33.9758 33.7307 33.7305 33.4853 33.7305 33.1827V26.6057C33.7305 21.7704 37.6644 17.8365 42.4997 17.8365C44.8415 17.8365 47.0435 18.7488 48.7001 20.4053C50.3566 22.0619 51.2689 24.2638 51.2689 26.6057V33.1827C51.2689 33.4853 51.0235 33.7307 50.7208 33.7307Z" fill="#9C9C9C"/>
<path d="M41.951 49.077C41.6923 49.077 41.4623 48.8932 41.4128 48.63C41.357 48.3323 41.553 48.0461 41.8506 47.9902L50.1728 46.4298V42.5C50.1728 42.1972 50.4181 41.9519 50.7208 41.9519C51.0235 41.9519 51.2689 42.1972 51.2689 42.5V46.8845C51.2689 47.1483 51.081 47.3747 50.8218 47.4233L42.0526 49.0675C42.0184 49.074 41.9845 49.077 41.951 49.077Z" fill="#9C9C9C"/>
<path d="M48.5285 27.1538H36.4709C36.1682 27.1538 35.9229 26.9084 35.9229 26.6057C35.9229 26.3031 36.1682 26.0577 36.4709 26.0577H48.5285C48.8312 26.0577 49.0766 26.3031 49.0766 26.6057C49.0767 26.9084 48.8312 27.1538 48.5285 27.1538Z" fill="#9C9C9C"/>
<path d="M48.5285 30.9903H36.4709C36.1682 30.9903 35.9229 30.745 35.9229 30.4423C35.9229 30.1396 36.1682 29.8942 36.4709 29.8942H48.5285C48.8312 29.8942 49.0766 30.1396 49.0766 30.4423C49.0767 30.745 48.8312 30.9903 48.5285 30.9903Z" fill="#9C9C9C"/>
<path d="M37.567 40.8558H34.2785C33.9758 40.8558 33.7305 40.6104 33.7305 40.3077C33.7305 40.005 33.9758 39.7596 34.2785 39.7596H37.567C37.8696 39.7596 38.1151 40.005 38.1151 40.3077C38.1151 40.6104 37.8696 40.8558 37.567 40.8558Z" fill="#9C9C9C"/>
<path d="M50.7214 40.8558H47.4328C47.1301 40.8558 46.8848 40.6104 46.8848 40.3077C46.8848 40.005 47.1301 39.7596 47.4328 39.7596H50.7213C51.024 39.7596 51.2693 40.005 51.2693 40.3077C51.2694 40.6104 51.024 40.8558 50.7214 40.8558Z" fill="#9C9C9C"/>
<path d="M61.1347 52.3654H23.8654C23.5627 52.3654 23.3174 52.1201 23.3174 51.8173C23.3174 51.5145 23.5627 51.2693 23.8654 51.2693H61.1347C61.4374 51.2693 61.6827 51.5145 61.6827 51.8173C61.6827 52.1201 61.4374 52.3654 61.1347 52.3654Z" fill="#9C9C9C"/>
<path d="M25.5097 24.4135C24.3009 24.4135 23.3174 23.43 23.3174 22.2212C23.3174 21.0123 24.3008 20.0288 25.5097 20.0288C26.7184 20.0288 27.702 21.0123 27.702 22.2212C27.702 23.43 26.7184 24.4135 25.5097 24.4135ZM25.5097 21.125C24.9052 21.125 24.4136 21.6167 24.4136 22.2212C24.4136 22.8256 24.9052 23.3173 25.5097 23.3173C26.1142 23.3173 26.6059 22.8256 26.6059 22.2212C26.6059 21.6167 26.1141 21.125 25.5097 21.125Z" fill="#9C9C9C"/>
<path d="M62.5047 23.8653C60.8425 23.8653 59.4902 22.5131 59.4902 20.8509C59.4902 19.1887 60.8425 17.8364 62.5047 17.8364C64.1667 17.8364 65.5191 19.1887 65.5191 20.8509C65.5191 22.5131 64.1667 23.8653 62.5047 23.8653ZM62.5047 18.9327C61.447 18.9327 60.5863 19.7932 60.5863 20.8509C60.5863 21.9086 61.447 22.7692 62.5047 22.7692C63.5624 22.7692 64.4229 21.9086 64.4229 20.8509C64.4229 19.7933 63.5623 18.9327 62.5047 18.9327Z" fill="#9C9C9C"/>
<path d="M30.4424 50.173H23.8654C23.5627 50.173 23.3174 49.9277 23.3174 49.625C23.3174 49.3222 23.5627 49.0769 23.8654 49.0769H30.4424C30.7451 49.0769 30.9904 49.3222 30.9904 49.625C30.9904 49.9277 30.7451 50.173 30.4424 50.173Z" fill="#9C9C9C"/>
<path d="M29.3462 47.9808H23.8654C23.5627 47.9808 23.3174 47.7355 23.3174 47.4327C23.3174 47.13 23.5627 46.8846 23.8654 46.8846H29.3462C29.6489 46.8846 29.8943 47.13 29.8943 47.4327C29.8943 47.7354 29.6488 47.9808 29.3462 47.9808Z" fill="#9C9C9C"/>
<path d="M28.2501 45.7884H23.8654C23.5627 45.7884 23.3174 45.5431 23.3174 45.2404C23.3174 44.9376 23.5627 44.6923 23.8654 44.6923H28.2501C28.5528 44.6923 28.7981 44.9376 28.7981 45.2404C28.7981 45.5431 28.5528 45.7884 28.2501 45.7884Z" fill="#9C9C9C"/>
<path d="M61.1348 50.173H54.5578C54.2551 50.173 54.0098 49.9277 54.0098 49.625C54.0098 49.3222 54.2551 49.0769 54.5578 49.0769H61.1348C61.4374 49.0769 61.6828 49.3222 61.6828 49.625C61.6828 49.9277 61.4374 50.173 61.1348 50.173Z" fill="#9C9C9C"/>
<path d="M61.1343 47.9808H55.6535C55.3508 47.9808 55.1055 47.7355 55.1055 47.4327C55.1055 47.13 55.3508 46.8846 55.6535 46.8846H61.1343C61.437 46.8846 61.6823 47.13 61.6823 47.4327C61.6823 47.7354 61.437 47.9808 61.1343 47.9808Z" fill="#9C9C9C"/>
<path d="M61.1348 45.7884H56.7502C56.4475 45.7884 56.2021 45.5431 56.2021 45.2404C56.2021 44.9376 56.4475 44.6923 56.7502 44.6923H61.1348C61.4375 44.6923 61.6828 44.9376 61.6828 45.2404C61.6828 45.5431 61.4375 45.7884 61.1348 45.7884Z" fill="#9C9C9C"/>
<defs>
<linearGradient id="paint0_linear_374_7418" x1="42.5" y1="0" x2="42.5" y2="85" gradientUnits="userSpaceOnUse">
<stop stop-color="white"/>
<stop offset="1" stop-color="#999999" stop-opacity="0"/>
</linearGradient>
</defs>
</svg>
