<svg width="85" height="85" viewBox="0 0 85 85" fill="none" xmlns="http://www.w3.org/2000/svg">
<rect width="85" height="85" rx="11" fill="url(#paint0_linear_374_8892)" fill-opacity="0.06"/>
<rect x="1" y="1" width="83" height="83" rx="10" stroke="#EAFFE5" stroke-opacity="0.14" stroke-width="2"/>
<g style="mix-blend-mode:hard-light" clip-path="url(#clip0_374_8892)">
<path d="M31.9258 52.6445H54.0742C54.9479 52.6445 55.6562 52.0018 55.6562 51.209V32.5469H60.4023C61.276 32.5469 61.9844 31.9041 61.9844 31.1113V22.3066C61.9844 19.932 59.8553 18 57.2383 18H35.0898C32.4728 18 30.3438 19.932 30.3438 22.3066V51.209C30.3438 52.0018 31.0521 52.6445 31.9258 52.6445ZM58.8203 29.6758H55.6562V22.3066C55.6562 21.5151 56.3659 20.8711 57.2383 20.8711C58.1106 20.8711 58.8203 21.5151 58.8203 22.3066V29.6758ZM33.5078 22.3066C33.5078 21.5151 34.2175 20.8711 35.0898 20.8711H52.7643C52.5887 21.3204 52.4922 21.8034 52.4922 22.3066V49.7734C50.8805 49.7734 36.0633 49.7734 33.5078 49.7734V22.3066Z" fill="url(#paint1_linear_374_8892)"/>
<path d="M31.9258 52.6445H54.0742C54.9479 52.6445 55.6562 52.0018 55.6562 51.209V32.5469H60.4023C61.276 32.5469 61.9844 31.9041 61.9844 31.1113V22.3066C61.9844 19.932 59.8553 18 57.2383 18H35.0898C32.4728 18 30.3438 19.932 30.3438 22.3066V51.209C30.3438 52.0018 31.0521 52.6445 31.9258 52.6445ZM58.8203 29.6758H55.6562V22.3066C55.6562 21.5151 56.3659 20.8711 57.2383 20.8711C58.1106 20.8711 58.8203 21.5151 58.8203 22.3066V29.6758ZM33.5078 22.3066C33.5078 21.5151 34.2175 20.8711 35.0898 20.8711H52.7643C52.5887 21.3204 52.4922 21.8034 52.4922 22.3066V49.7734C50.8805 49.7734 36.0633 49.7734 33.5078 49.7734V22.3066Z" fill="url(#paint2_linear_374_8892)"/>
<path d="M38.2539 35.418H47.7461C48.6198 35.418 49.3281 34.7752 49.3281 33.9824C49.3281 33.1896 48.6198 32.5469 47.7461 32.5469H38.2539C37.3802 32.5469 36.6719 33.1896 36.6719 33.9824C36.6719 34.7752 37.3802 35.418 38.2539 35.418Z" fill="url(#paint3_linear_374_8892)"/>
<path d="M38.2539 35.418H47.7461C48.6198 35.418 49.3281 34.7752 49.3281 33.9824C49.3281 33.1896 48.6198 32.5469 47.7461 32.5469H38.2539C37.3802 32.5469 36.6719 33.1896 36.6719 33.9824C36.6719 34.7752 37.3802 35.418 38.2539 35.418Z" fill="url(#paint4_linear_374_8892)"/>
<path d="M47.7461 41.1602C48.6198 41.1602 49.3281 40.5174 49.3281 39.7246C49.3281 38.9318 48.6198 38.2891 47.7461 38.2891H38.2539C37.3802 38.2891 36.6719 38.9318 36.6719 39.7246C36.6719 40.5174 37.3802 41.1602 38.2539 41.1602H47.7461Z" fill="url(#paint5_linear_374_8892)"/>
<path d="M47.7461 41.1602C48.6198 41.1602 49.3281 40.5174 49.3281 39.7246C49.3281 38.9318 48.6198 38.2891 47.7461 38.2891H38.2539C37.3802 38.2891 36.6719 38.9318 36.6719 39.7246C36.6719 40.5174 37.3802 41.1602 38.2539 41.1602H47.7461Z" fill="url(#paint6_linear_374_8892)"/>
<path d="M44.582 44.0312H41.418C40.5443 44.0312 39.8359 44.674 39.8359 45.4668C39.8359 46.2596 40.5443 46.9023 41.418 46.9023H44.582C45.4557 46.9023 46.1641 46.2596 46.1641 45.4668C46.1641 44.674 45.4557 44.0312 44.582 44.0312Z" fill="url(#paint7_linear_374_8892)"/>
<path d="M44.582 44.0312H41.418C40.5443 44.0312 39.8359 44.674 39.8359 45.4668C39.8359 46.2596 40.5443 46.9023 41.418 46.9023H44.582C45.4557 46.9023 46.1641 46.2596 46.1641 45.4668C46.1641 44.674 45.4557 44.0312 44.582 44.0312Z" fill="url(#paint8_linear_374_8892)"/>
<path d="M41.418 29.6758H44.582C45.4557 29.6758 46.1641 29.033 46.1641 28.2402C46.1641 27.4474 45.4557 26.8047 44.582 26.8047H41.418C40.5443 26.8047 39.8359 27.4474 39.8359 28.2402C39.8359 29.033 40.5443 29.6758 41.418 29.6758Z" fill="url(#paint9_linear_374_8892)"/>
<path d="M41.418 29.6758H44.582C45.4557 29.6758 46.1641 29.033 46.1641 28.2402C46.1641 27.4474 45.4557 26.8047 44.582 26.8047H41.418C40.5443 26.8047 39.8359 27.4474 39.8359 28.2402C39.8359 29.033 40.5443 29.6758 41.418 29.6758Z" fill="url(#paint10_linear_374_8892)"/>
<path d="M68.194 47.9682C68.0539 47.9526 65.6937 47.7058 63.2174 48.403C63.2175 48.3812 63.2181 46.5365 63.2181 46.5365C64.7974 46.0323 67.4718 44.8866 68.8996 42.6244C70.9642 39.3535 69.4914 35.2234 69.4277 35.0491C69.1739 34.3547 68.3851 33.9444 67.5963 34.0972C67.3984 34.1355 62.7273 35.0726 60.6627 38.3435C58.8566 41.2048 59.7575 44.7236 60.0541 45.6767V48.3379C60.0541 48.9226 60.0102 49.5082 59.9246 50.0849C57.5526 52.1019 57.0344 55.2004 56.9216 56.4205C56.1698 57.2703 55.3077 58.027 54.3485 58.6793C53.6551 58.4978 52.9157 58.3866 52.1438 58.3866C48.9127 58.3866 46.2485 60.33 45.1606 61.2578H40.8395C39.7517 60.33 37.0876 58.3866 33.8562 58.3866C33.0842 58.3866 32.3449 58.4978 31.6515 58.6793C30.6939 58.028 29.8325 57.2721 29.0784 56.4203C28.9655 55.2001 28.4473 52.1018 26.0754 50.0848C25.9898 49.5081 25.9459 48.9225 25.9459 48.3378V45.6766C26.2426 44.7235 27.1434 41.2047 25.3373 38.3434C23.2727 35.0725 18.6016 34.1354 18.4037 34.0972C17.6147 33.9441 16.8261 34.3546 16.5723 35.049C16.5086 35.2232 15.0358 39.3533 17.1004 42.6243C18.5282 44.8865 21.2026 46.0322 22.7819 46.5365C22.7819 46.5365 22.7825 48.3812 22.7826 48.4029C20.3063 47.7056 17.9461 47.9525 17.806 47.9681C17.0056 48.0573 16.4072 48.6784 16.4169 49.41C16.4193 49.5936 16.5121 53.9337 19.6399 56.4145C21.8395 58.159 24.8421 58.4309 26.5006 58.4309C26.6055 58.4309 26.7044 58.4298 26.7981 58.4279C27.33 59.0087 27.9047 59.5528 28.52 60.0572C27.2244 60.862 26.4157 61.6686 26.3494 61.7356C25.8114 62.2808 25.8114 63.1057 26.3494 63.6509C26.4843 63.7876 29.702 67 33.8561 67C37.0874 67 39.7513 65.0568 40.8393 64.1289H45.1608C46.2488 65.0568 48.9127 67 52.144 67C56.2978 67 59.5158 63.7877 59.6507 63.6509C60.1887 63.1058 60.1887 62.2809 59.6507 61.7357C59.5845 61.6686 58.7758 60.8621 57.4801 60.0573C58.0953 59.5529 58.6701 59.0088 59.202 58.4279C59.2957 58.4299 59.3946 58.431 59.4996 58.431C61.1582 58.431 64.1608 58.159 66.3603 56.4145C69.488 53.9337 69.5808 49.5937 69.5833 49.4101C69.5927 48.6785 68.9944 48.0574 68.194 47.9682ZM19.846 41.1974C19.0748 39.9755 19.0905 38.4548 19.2492 37.366C20.3661 37.7943 21.823 38.5527 22.5916 39.7704C23.3629 40.9922 23.3471 42.513 23.1885 43.6017C22.0716 43.1735 20.6146 42.4151 19.846 41.1974ZM21.7223 54.2528C20.554 53.3262 20.022 51.884 19.7804 50.8079C20.9903 50.882 22.6403 51.1677 23.8046 52.0912C24.9736 53.0183 25.5055 54.4618 25.7468 55.5382C24.5382 55.4652 22.891 55.1799 21.7223 54.2528ZM33.8561 64.1289C32.3034 64.1289 30.8561 63.3596 29.8938 62.6934C31.0312 61.9059 32.4375 61.2578 33.8562 61.2578C35.4089 61.2578 36.8561 62.027 37.8185 62.6932C36.8555 63.3599 35.4084 64.1289 33.8561 64.1289ZM52.1439 64.1289C50.5912 64.1289 49.1439 63.3596 48.1815 62.6933C49.1445 62.0266 50.5916 61.2577 52.1438 61.2577C53.5671 61.2577 54.9749 61.9099 56.1063 62.6932C55.1432 63.3599 53.6962 64.1289 52.1439 64.1289ZM63.4084 39.7704C64.1796 38.5486 65.6332 37.7915 66.7483 37.3646C66.9063 38.4555 66.9225 39.9797 66.154 41.1974C65.3828 42.4191 63.9292 43.1763 62.8141 43.6032C62.656 42.5123 62.6398 40.9881 63.4084 39.7704ZM64.2777 54.2529C63.1086 55.1802 61.4611 55.4654 60.2533 55.5384C60.4947 54.4613 61.0266 53.0182 62.1954 52.0912C63.3638 51.1645 65.0101 50.8791 66.2177 50.8058C65.9748 51.8838 65.4421 53.3294 64.2777 54.2529Z" fill="url(#paint11_linear_374_8892)"/>
<path d="M68.194 47.9682C68.0539 47.9526 65.6937 47.7058 63.2174 48.403C63.2175 48.3812 63.2181 46.5365 63.2181 46.5365C64.7974 46.0323 67.4718 44.8866 68.8996 42.6244C70.9642 39.3535 69.4914 35.2234 69.4277 35.0491C69.1739 34.3547 68.3851 33.9444 67.5963 34.0972C67.3984 34.1355 62.7273 35.0726 60.6627 38.3435C58.8566 41.2048 59.7575 44.7236 60.0541 45.6767V48.3379C60.0541 48.9226 60.0102 49.5082 59.9246 50.0849C57.5526 52.1019 57.0344 55.2004 56.9216 56.4205C56.1698 57.2703 55.3077 58.027 54.3485 58.6793C53.6551 58.4978 52.9157 58.3866 52.1438 58.3866C48.9127 58.3866 46.2485 60.33 45.1606 61.2578H40.8395C39.7517 60.33 37.0876 58.3866 33.8562 58.3866C33.0842 58.3866 32.3449 58.4978 31.6515 58.6793C30.6939 58.028 29.8325 57.2721 29.0784 56.4203C28.9655 55.2001 28.4473 52.1018 26.0754 50.0848C25.9898 49.5081 25.9459 48.9225 25.9459 48.3378V45.6766C26.2426 44.7235 27.1434 41.2047 25.3373 38.3434C23.2727 35.0725 18.6016 34.1354 18.4037 34.0972C17.6147 33.9441 16.8261 34.3546 16.5723 35.049C16.5086 35.2232 15.0358 39.3533 17.1004 42.6243C18.5282 44.8865 21.2026 46.0322 22.7819 46.5365C22.7819 46.5365 22.7825 48.3812 22.7826 48.4029C20.3063 47.7056 17.9461 47.9525 17.806 47.9681C17.0056 48.0573 16.4072 48.6784 16.4169 49.41C16.4193 49.5936 16.5121 53.9337 19.6399 56.4145C21.8395 58.159 24.8421 58.4309 26.5006 58.4309C26.6055 58.4309 26.7044 58.4298 26.7981 58.4279C27.33 59.0087 27.9047 59.5528 28.52 60.0572C27.2244 60.862 26.4157 61.6686 26.3494 61.7356C25.8114 62.2808 25.8114 63.1057 26.3494 63.6509C26.4843 63.7876 29.702 67 33.8561 67C37.0874 67 39.7513 65.0568 40.8393 64.1289H45.1608C46.2488 65.0568 48.9127 67 52.144 67C56.2978 67 59.5158 63.7877 59.6507 63.6509C60.1887 63.1058 60.1887 62.2809 59.6507 61.7357C59.5845 61.6686 58.7758 60.8621 57.4801 60.0573C58.0953 59.5529 58.6701 59.0088 59.202 58.4279C59.2957 58.4299 59.3946 58.431 59.4996 58.431C61.1582 58.431 64.1608 58.159 66.3603 56.4145C69.488 53.9337 69.5808 49.5937 69.5833 49.4101C69.5927 48.6785 68.9944 48.0574 68.194 47.9682ZM19.846 41.1974C19.0748 39.9755 19.0905 38.4548 19.2492 37.366C20.3661 37.7943 21.823 38.5527 22.5916 39.7704C23.3629 40.9922 23.3471 42.513 23.1885 43.6017C22.0716 43.1735 20.6146 42.4151 19.846 41.1974ZM21.7223 54.2528C20.554 53.3262 20.022 51.884 19.7804 50.8079C20.9903 50.882 22.6403 51.1677 23.8046 52.0912C24.9736 53.0183 25.5055 54.4618 25.7468 55.5382C24.5382 55.4652 22.891 55.1799 21.7223 54.2528ZM33.8561 64.1289C32.3034 64.1289 30.8561 63.3596 29.8938 62.6934C31.0312 61.9059 32.4375 61.2578 33.8562 61.2578C35.4089 61.2578 36.8561 62.027 37.8185 62.6932C36.8555 63.3599 35.4084 64.1289 33.8561 64.1289ZM52.1439 64.1289C50.5912 64.1289 49.1439 63.3596 48.1815 62.6933C49.1445 62.0266 50.5916 61.2577 52.1438 61.2577C53.5671 61.2577 54.9749 61.9099 56.1063 62.6932C55.1432 63.3599 53.6962 64.1289 52.1439 64.1289ZM63.4084 39.7704C64.1796 38.5486 65.6332 37.7915 66.7483 37.3646C66.9063 38.4555 66.9225 39.9797 66.154 41.1974C65.3828 42.4191 63.9292 43.1763 62.8141 43.6032C62.656 42.5123 62.6398 40.9881 63.4084 39.7704ZM64.2777 54.2529C63.1086 55.1802 61.4611 55.4654 60.2533 55.5384C60.4947 54.4613 61.0266 53.0182 62.1954 52.0912C63.3638 51.1645 65.0101 50.8791 66.2177 50.8058C65.9748 51.8838 65.4421 53.3294 64.2777 54.2529Z" fill="url(#paint12_linear_374_8892)"/>
</g>
<defs>
<linearGradient id="paint0_linear_374_8892" x1="42.5" y1="0" x2="42.5" y2="85" gradientUnits="userSpaceOnUse">
<stop stop-color="white"/>
<stop offset="1" stop-color="#999999" stop-opacity="0"/>
</linearGradient>
<linearGradient id="paint1_linear_374_8892" x1="46.1641" y1="65.312" x2="46.1641" y2="17.2242" gradientUnits="userSpaceOnUse">
<stop stop-color="#A93AFF"/>
<stop offset="1" stop-color="#FF81FF"/>
</linearGradient>
<linearGradient id="paint2_linear_374_8892" x1="46.1641" y1="52.6445" x2="46.1641" y2="18" gradientUnits="userSpaceOnUse">
<stop stop-color="white"/>
<stop offset="1" stop-color="#8B8B8B"/>
</linearGradient>
<linearGradient id="paint3_linear_374_8892" x1="43" y1="65.312" x2="43" y2="17.2242" gradientUnits="userSpaceOnUse">
<stop stop-color="#A93AFF"/>
<stop offset="1" stop-color="#FF81FF"/>
</linearGradient>
<linearGradient id="paint4_linear_374_8892" x1="43" y1="35.418" x2="43" y2="32.5469" gradientUnits="userSpaceOnUse">
<stop stop-color="white"/>
<stop offset="1" stop-color="#8B8B8B"/>
</linearGradient>
<linearGradient id="paint5_linear_374_8892" x1="43" y1="65.312" x2="43" y2="17.2242" gradientUnits="userSpaceOnUse">
<stop stop-color="#A93AFF"/>
<stop offset="1" stop-color="#FF81FF"/>
</linearGradient>
<linearGradient id="paint6_linear_374_8892" x1="43" y1="41.1602" x2="43" y2="38.2891" gradientUnits="userSpaceOnUse">
<stop stop-color="white"/>
<stop offset="1" stop-color="#8B8B8B"/>
</linearGradient>
<linearGradient id="paint7_linear_374_8892" x1="43" y1="65.312" x2="43" y2="17.2242" gradientUnits="userSpaceOnUse">
<stop stop-color="#A93AFF"/>
<stop offset="1" stop-color="#FF81FF"/>
</linearGradient>
<linearGradient id="paint8_linear_374_8892" x1="43" y1="46.9023" x2="43" y2="44.0312" gradientUnits="userSpaceOnUse">
<stop stop-color="white"/>
<stop offset="1" stop-color="#8B8B8B"/>
</linearGradient>
<linearGradient id="paint9_linear_374_8892" x1="43" y1="65.312" x2="43" y2="17.2242" gradientUnits="userSpaceOnUse">
<stop stop-color="#A93AFF"/>
<stop offset="1" stop-color="#FF81FF"/>
</linearGradient>
<linearGradient id="paint10_linear_374_8892" x1="43" y1="29.6758" x2="43" y2="26.8047" gradientUnits="userSpaceOnUse">
<stop stop-color="white"/>
<stop offset="1" stop-color="#8B8B8B"/>
</linearGradient>
<linearGradient id="paint11_linear_374_8892" x1="43" y1="65.312" x2="43" y2="17.2242" gradientUnits="userSpaceOnUse">
<stop stop-color="#A93AFF"/>
<stop offset="1" stop-color="#FF81FF"/>
</linearGradient>
<linearGradient id="paint12_linear_374_8892" x1="43" y1="67" x2="43" y2="34.0652" gradientUnits="userSpaceOnUse">
<stop stop-color="white"/>
<stop offset="1" stop-color="#8B8B8B"/>
</linearGradient>
<clipPath id="clip0_374_8892">
<rect width="54" height="49" fill="white" transform="translate(16 18)"/>
</clipPath>
</defs>
</svg>
